<svg width="298" height="297" viewBox="0 0 298 297" fill="none" xmlns="http://www.w3.org/2000/svg">
<rect y="234.051" width="298" height="62.95" fill="#FDF28A"/>
<path d="M54.2978 132.373L84.3915 124.494L252 117.467C252 117.467 251.098 127.475 232.479 132.551C226.056 134.325 54.2978 132.373 54.2978 132.373Z" fill="#F2DF55" stroke="black" stroke-miterlimit="10"/>
<path d="M89.9828 132.018C89.9828 132.018 172.398 145.008 214.435 140.358L222.843 66.6778C222.843 66.6778 223.853 33.9899 221.147 32.3218C218.441 30.6537 202.636 59.0116 202.636 59.0116C202.636 59.0116 150.495 51.3454 116.216 54.3267C116.216 54.3267 104.452 21 101.746 21C99.0398 21 90.3075 57.024 90.9931 59.331C91.6787 61.6734 88.6477 107.706 89.9828 132.018Z" fill="#F4B8CD"/>
<path d="M208.301 59.7568L218.945 61.9573L218.512 44.5664L208.301 59.7568Z" fill="#E28FAF"/>
<path d="M97.5967 52.4815L109.793 52.6945L103.37 37.0781L97.5967 52.4815Z" fill="#E28FAF"/>
<path d="M128.268 107.351C127.654 107.671 126.861 107.564 126.355 107.067C124.443 105.151 120.113 100.431 122.206 99.0818C124.299 97.7331 130.722 99.2948 133.284 100.005C134.186 100.253 134.691 101.211 134.366 102.063C133.933 103.305 132.454 105.151 128.268 107.351Z" fill="#072C75"/>
<path d="M127.184 107.883L126.859 117.324" stroke="black" stroke-miterlimit="10" stroke-linecap="round"/>
<path d="M163.738 112.214L188.961 110.617" stroke="black" stroke-miterlimit="10" stroke-linecap="round"/>
<path d="M163.519 116.543L189.211 122.435" stroke="black" stroke-miterlimit="10" stroke-linecap="round"/>
<path d="M162.15 119.277L181.852 133.119" stroke="black" stroke-miterlimit="10" stroke-linecap="round"/>
<path d="M96.332 103.803L73.6354 92.4453" stroke="black" stroke-miterlimit="10" stroke-linecap="round"/>
<path d="M94.2773 107.884L67.9002 103.803" stroke="black" stroke-miterlimit="10" stroke-linecap="round"/>
<path d="M93.5898 112L71.7953 118.353" stroke="black" stroke-miterlimit="10" stroke-linecap="round"/>
<path d="M155.294 98.0512C147.682 98.0512 141.51 91.9335 141.51 84.3869C141.51 76.8404 147.682 70.7227 155.294 70.7227C162.907 70.7227 169.078 76.8404 169.078 84.3869C169.078 91.9335 162.907 98.0512 155.294 98.0512Z" fill="#EFC411"/>
<path d="M155.04 94.5394C149.44 94.5394 144.901 90.0425 144.901 84.4953C144.901 78.9481 149.44 74.4512 155.04 74.4512C160.64 74.4512 165.18 78.9481 165.18 84.4953C165.18 90.0425 160.64 94.5394 155.04 94.5394Z" fill="#072C75"/>
<path d="M159.498 81.3714C158.374 80.0987 158.048 78.5667 158.771 77.9497C159.493 77.3327 160.989 77.8642 162.113 79.1369C163.237 80.4097 163.563 81.9416 162.841 82.5586C162.119 83.1757 160.622 82.6441 159.498 81.3714Z" fill="white"/>
<path d="M111.489 95.4614C103.877 95.4614 97.7055 89.3437 97.7055 81.7971C97.7055 74.2505 103.877 68.1328 111.489 68.1328C119.102 68.1328 125.273 74.2505 125.273 81.7971C125.273 89.3437 119.102 95.4614 111.489 95.4614Z" fill="#EFC411"/>
<path d="M111.235 91.9496C105.636 91.9496 101.096 87.4527 101.096 81.9055C101.096 76.3582 105.636 71.8613 111.235 71.8613C116.835 71.8613 121.375 76.3582 121.375 81.9055C121.375 87.4527 116.835 91.9496 111.235 91.9496Z" fill="#072C75"/>
<path d="M115.709 78.7893C114.585 77.5166 114.259 75.9847 114.982 75.3677C115.704 74.7506 117.2 75.2822 118.324 76.5549C119.448 77.8276 119.774 79.3596 119.052 79.9766C118.329 80.5936 116.833 80.0621 115.709 78.7893Z" fill="white"/>
<path d="M58.8438 143.874L54.2973 128.293H232.262C232.262 128.293 216.349 245.486 215.591 266.107C214.833 286.728 220.138 283.214 204.982 284.208C189.827 285.202 47.4774 279.168 47.4774 279.168C47.4774 279.168 38.3844 277.145 42.9309 261.564C47.4774 245.983 58.8438 143.874 58.8438 143.874Z" fill="#072047" stroke="black" stroke-miterlimit="10"/>
<path d="M232.262 128.292C232.262 128.292 251.495 121.265 252 117.467C252.505 113.67 260.444 264.012 250.376 272.743C240.309 281.474 211.803 283.994 211.803 283.994C211.803 283.994 216.674 224.368 232.262 128.292Z" fill="#072047" stroke="black" stroke-miterlimit="10"/>
<path d="M126.609 116.72C126.609 116.72 120.295 123.534 116.795 115.797" stroke="black" stroke-miterlimit="10" stroke-linecap="round"/>
<path d="M126.717 117.183C126.717 117.183 133.031 123.997 136.531 116.26" stroke="black" stroke-miterlimit="10" stroke-linecap="round"/>
<rect x="0.5" y="0.5" width="297" height="296" stroke="white"/>
</svg>
