<svg width="298" height="299" viewBox="0 0 298 299" fill="none" xmlns="http://www.w3.org/2000/svg">
<rect x="2.5" y="0.5" width="293" height="293" stroke="white"/>
<mask id="mask0" mask-type="alpha" maskUnits="userSpaceOnUse" x="0" y="0" width="298" height="299">
<rect y="0.648438" width="297.567" height="297.567" fill="#C4C4C4"/>
</mask>
<g mask="url(#mask0)">
<path d="M137.755 166.663C137.525 173.952 136.024 202.874 128.866 202.759C104.046 202.296 34.5985 202.759 19.4754 202.759C16.4739 202.759 12.8463 123.395 12.8463 123.395C13.308 108.933 22.7744 95.86 37.8974 88.2244C44.4776 84.8694 50.0189 81.3987 50.9424 78.6221C53.1359 71.4492 53.1358 71.4492 53.1358 71.4492L99.8902 78.6221C99.8902 83.2497 103.354 87.4146 108.779 89.0343C122.863 93.3148 130.136 102.57 134.408 117.726C139.487 135.658 139.487 153.821 137.755 166.663Z" fill="#F3CB04" stroke="black" stroke-miterlimit="10" stroke-linecap="round" stroke-linejoin="round"/>
<path d="M133.93 142.732L110.151 154.995L112.4 165.765C112.4 165.765 117.22 168.004 97.1902 170.243C77.0531 172.483 52.203 175.468 48.7755 180.587C45.455 185.812 39.8851 194.662 46.2048 196.901C46.2048 196.901 51.5604 192.423 51.0248 190.077C51.0248 190.077 46.8474 200.207 51.239 200.207C55.6306 200.207 56.4875 190.61 56.4875 190.61C56.4875 190.61 54.1311 201.593 58.2013 200.207C62.2716 198.821 62.1645 191.57 62.1645 191.57C62.1645 191.57 61.0934 200.42 64.521 199.567C67.9485 198.714 67.6272 195.515 67.6272 195.515L119.593 188.179C119.593 188.179 132.289 182.599 129.718 167.031C127.147 151.462 133.93 142.732 133.93 142.732Z" fill="#CE9F67" stroke="black" stroke-miterlimit="10" stroke-linecap="round" stroke-linejoin="round"/>
<path d="M134.892 171.306C136.705 167.256 139.841 153.307 136.691 140.033L107.218 147.458C97.5443 140.258 90.1649 137.558 89.4449 157.357C88.725 177.155 73.696 165.906 60.1967 174.006L59.522 203.703C61.9968 203.478 82.682 205.025 108.344 207.078C127.017 208.572 128.142 186.38 134.892 171.306Z" fill="#F3CB04"/>
<path d="M111.432 83.1342C111.432 83.1342 119.628 88.9188 119.859 97.5956C119.859 98.7525 119.513 99.7937 118.705 100.604C113.972 105.578 94.5774 122.816 58.2129 110.206C58.2129 110.206 38.703 102.686 30.622 96.0916C28.4286 94.2405 28.5441 91.0012 30.8529 89.2658L31.3147 88.9188C32.7 87.8775 33.3927 86.2579 33.0463 84.6382C32.5846 82.4401 32.3537 79.4321 33.739 77.234C34.0853 76.6555 34.4317 76.1927 34.778 75.8457C36.0479 74.4574 36.2787 72.6063 35.4706 70.9866C33.2772 66.7061 30.5066 58.7234 32.8154 47.7327C32.9309 47.3857 32.9309 47.0386 32.9309 46.6915C32.8154 42.5266 31.8919 13.6039 37.2023 5.73688C38.0104 4.57997 39.2803 3.88582 40.5501 3.77013C42.3972 3.65444 44.0134 2.72891 45.0524 1.34062C48.6311 -3.40271 57.1739 -13.0051 68.7182 -16.5915C80.4934 -20.2936 98.1561 -18.7896 107.507 -6.06361C116.858 6.66241 117.666 20.1983 118.128 28.9908C118.59 37.7833 118.243 53.2859 118.243 53.8644C118.243 54.4428 118.359 61.5 115.126 65.7805C112.933 68.5571 110.162 72.4906 108.661 74.8045C107.969 75.8457 107.738 77.1183 108.084 78.3909C108.2 78.738 108.315 79.2007 108.315 79.6635C108.546 81.1675 109.585 82.3244 110.97 83.0185C111.317 83.0185 111.432 83.0185 111.432 83.1342Z" fill="#F3CB04" stroke="black" stroke-miterlimit="10" stroke-linecap="round" stroke-linejoin="round"/>
<path d="M87.4195 86.1419C87.4195 86.1419 104.159 75.7298 107.045 77.0024C108.084 77.4651 109.585 80.4731 107.276 82.6712C104.967 84.8693 87.4195 95.0501 87.4195 95.0501" stroke="black" stroke-miterlimit="10" stroke-linecap="round" stroke-linejoin="round"/>
<path d="M73.2227 98.2894C73.2227 98.2894 39.6288 75.614 38.0126 75.0355C35.4728 74.3414 30.9705 78.622 34.6647 87.8772C38.3589 97.2482 53.4819 101.413 53.4819 101.413" stroke="black" stroke-miterlimit="10" stroke-linecap="round" stroke-linejoin="round"/>
<path d="M56.2519 65.5481C56.2519 65.5481 37.3192 40.7902 42.5141 8.16532C42.745 7.00841 42.3987 5.8515 41.4752 5.04166C40.3207 4.00045 38.4737 3.76906 36.3957 8.85947C32.9324 17.4206 25.7749 52.7064 49.2099 69.9444C72.7602 87.1823 75.7617 84.0587 75.7617 84.0587" stroke="black" stroke-miterlimit="10" stroke-linecap="round" stroke-linejoin="round"/>
<path d="M95.1564 5.2748C95.1564 5.2748 75.6465 1.457 69.6435 9.90245C63.6405 18.3479 38.8203 57.9142 68.2582 75.8464C97.6961 93.7785 111.549 58.1456 111.549 52.7081C111.549 47.2707 115.243 14.8772 95.1564 5.2748Z" fill="#CE9F67" stroke="black" stroke-miterlimit="10" stroke-linecap="round" stroke-linejoin="round"/>
<path d="M94.2344 65.3176C94.2344 65.3176 90.5402 61.0371 84.5372 61.4998C78.5341 61.9626 74.4936 65.4333 74.4936 65.4333C74.4936 65.4333 75.9944 70.2924 84.5372 69.3668C93.08 68.557 94.2344 65.3176 94.2344 65.3176Z" fill="#E20707" stroke="black" stroke-miterlimit="10" stroke-linecap="round" stroke-linejoin="round"/>
<path d="M97.2337 30.0332C97.0028 30.1489 96.8874 30.496 97.2337 30.6116C98.7344 31.4215 102.89 33.3882 106.931 33.0412C110.625 32.8098 114.088 31.1901 115.589 30.3803C115.82 30.2646 115.82 29.8018 115.474 29.8018C113.511 29.339 108.201 28.2978 104.045 28.5292C100.928 28.7606 98.3881 29.5704 97.2337 30.0332Z" fill="white" stroke="#060707" stroke-miterlimit="10" stroke-linecap="round" stroke-linejoin="round"/>
<path d="M102.08 32.5766C102.08 32.5766 101.85 29.3373 102.889 28.8745C103.928 28.4117 108.084 28.6431 108.199 28.7588C108.314 28.8745 109.469 33.3865 106.583 33.0394C103.466 32.6923 102.08 32.5766 102.08 32.5766Z" fill="#050707"/>
<path fill-rule="evenodd" clip-rule="evenodd" d="M98.7333 19.7344C96.8862 19.7344 95.3854 19.8501 94.3464 20.6599C93.6538 21.2384 93.5383 22.7423 96.3089 22.6267C103.005 22.2796 109.585 23.0894 112.471 24.0149C113.51 24.362 117.435 22.7423 108.315 20.8913C103.582 19.9658 100.465 19.7344 98.7333 19.7344Z" fill="#060707" stroke="#060707" stroke-miterlimit="10" stroke-linecap="round" stroke-linejoin="round"/>
<path d="M77.9533 30.0332C78.1842 30.1489 78.2996 30.496 77.9533 30.6116C76.4525 31.4215 72.2966 33.3882 68.2561 33.0412C64.5619 32.8098 61.0986 31.1901 59.5979 30.3803C59.367 30.2646 59.367 29.8018 59.7133 29.8018C61.6759 29.339 66.9862 28.2978 71.1422 28.5292C74.2591 28.7606 76.7989 29.5704 77.9533 30.0332Z" fill="white" stroke="#060707" stroke-miterlimit="10" stroke-linecap="round" stroke-linejoin="round"/>
<path d="M73.107 32.5766C73.107 32.5766 73.3379 29.3373 72.299 28.8745C71.26 28.4117 67.104 28.6431 66.9886 28.7588C66.9886 28.8745 65.7187 33.3865 68.6048 33.0394C71.7217 32.6923 73.107 32.5766 73.107 32.5766Z" fill="#050707"/>
<path fill-rule="evenodd" clip-rule="evenodd" d="M72.1814 21.0078C74.0285 21.0078 75.5292 21.1235 76.5682 21.9333C77.2608 22.5118 77.3763 24.0158 74.6057 23.9001C67.91 23.553 61.3297 24.3629 58.4437 25.2884C57.4047 25.6355 53.4796 24.0158 62.5996 22.1647C67.3328 21.1235 70.4497 21.0078 72.1814 21.0078Z" fill="#060707" stroke="#060707" stroke-miterlimit="10" stroke-linecap="round" stroke-linejoin="round"/>
<path d="M84.9946 52.2442H89.266C90.305 52.2442 91.1131 51.3187 90.8822 50.3931L85.1101 24.594C84.7637 23.09 83.3784 22.0488 81.8777 22.0488H76.6827" stroke="#070707" stroke-miterlimit="10" stroke-linecap="round" stroke-linejoin="round"/>
<path d="M95.5 65.5494C95.5 65.5494 72.6423 66.822 70.4489 63.9297" stroke="black" stroke-miterlimit="10" stroke-linecap="round" stroke-linejoin="round"/>
<path d="M138.468 142.625C140.609 161.477 129.87 185.421 126.529 193.469C122.569 203.004 120.12 207.832 103.689 206.822C90.3188 206 70.1239 205.274 59.3853 203.522L60.1454 175.459C60.2331 175.018 98.5106 186.708 102.931 164.465C107.352 142.221 106.922 144.384 107.095 141.207" stroke="black"/>
<path d="M93.6661 185.145L77.3832 187.772L73.6356 202.62C76.4248 201.697 82.423 202.906 82.423 202.906C82.423 202.906 90.524 205.011 91.3963 205.157C92.2686 205.302 92.6267 205.908 92.6267 205.908C92.6267 205.908 95.725 211.845 96.7923 212.001C97.7675 212.055 96.9845 208.493 96.8322 207.703C96.8375 207.605 96.7453 207.502 96.7507 207.405C96.4901 206.804 95.5669 204.017 95.6911 203.535C95.8206 202.955 97.1325 204.005 97.5066 204.318C97.5988 204.421 100.549 207.711 101.921 209.447C102.382 209.961 103.27 209.815 103.405 209.138C103.648 208.271 103.403 207.378 103.051 206.675C102.698 205.971 101.976 204.856 101.521 204.245C100.702 203.125 97.9899 199.066 98.1194 198.487C98.2543 197.81 101.598 199.264 104.479 203.82C107.359 208.377 107.769 206.249 107.769 206.249C108.584 202.09 103.134 196.22 101.448 194.857C100.7 194.23 101.323 193.579 101.323 193.579C101.323 193.579 113.96 198.573 114.408 195.762C114.855 192.952 96.469 187.546 96.469 187.546C96.469 187.546 103.155 188.695 101.127 186.433C99.0991 184.171 93.6661 185.145 93.6661 185.145Z" fill="#CE9F67" stroke="#010202" stroke-miterlimit="10"/>
<path d="M10.4756 157.355C10.0256 152.406 9.12603 129.008 12.9505 119.783L42.4233 129.008C52.0974 121.808 41.7034 139.357 42.4233 159.155C43.1433 178.954 61.5468 178.279 81.1204 180.304L76.1707 207.977C73.6959 207.752 52.3223 205.727 28.6993 200.102C10.4755 195.763 12.9095 184.128 10.4756 157.355Z" fill="#F3CB04"/>
<path d="M13.1731 119.559C6.80427 137.432 11.6339 174.296 13.0596 182.893C14.7489 193.078 16.0364 198.336 32.2674 201.086C45.4746 203.324 65.3061 207.206 76.162 207.94L81.7987 180.439C81.8136 179.989 41.8809 182.675 42.6305 160.009C43.3801 137.343 43.3073 139.547 43.8611 136.414" stroke="black"/>
<path d="M213.201 -17.3358C213.201 -17.3358 170.762 -20.9745 166.54 17.5336C162.317 56.0417 166.54 61.4706 166.54 61.4706L256.204 63.5915C256.204 63.572 280.721 -20.3519 213.201 -17.3358Z" fill="#F2CA07" stroke="#020203" stroke-width="2" stroke-miterlimit="10"/>
<path d="M232.68 57.0734C232.68 57.0734 228.554 61.4321 231.395 67.1918C233.555 71.531 239.081 70.7721 243.012 70.5775C251.904 70.13 265.365 80.71 268.829 89.6414C273.071 100.538 277.492 107.334 277.492 107.334H152.258C152.258 107.334 151.344 91.1061 161.637 84.4513C181.67 82.9206 195.111 70.6379 195.111 70.6379C195.111 70.6379 203.706 66.608 203.842 59.6419C203.979 52.6758 210.633 53.4153 210.633 53.4153L232.68 57.0734Z" fill="white" stroke="#020203" stroke-width="2" stroke-miterlimit="10"/>
<path d="M218.396 -4.08528C225.187 -4.39662 231.9 -2.27566 237.135 2.0441C244.159 7.84269 250.172 18.7977 243.342 39.015C243.342 39.015 233.788 67.8328 216.567 65.7702C216.567 65.7702 201.195 65.0308 193.743 52.8304C188.489 44.2104 172.728 -1.96432 218.396 -4.08528Z" fill="white" stroke="#020203" stroke-width="2" stroke-miterlimit="10"/>
<path d="M226.684 25.22C226.45 25.3173 226.431 25.6092 226.645 25.7259C227.89 26.407 231.276 28.0415 234.565 27.7885C237.62 27.555 240.422 26.2124 241.628 25.5703C241.861 25.4535 241.823 25.1033 241.55 25.0449C239.896 24.6557 235.635 23.7801 232.191 23.9941C229.719 24.1498 227.618 24.8503 226.684 25.22Z" fill="white" stroke="#060708" stroke-width="2" stroke-miterlimit="10"/>
<path d="M230.616 27.3795C230.616 27.3795 230.441 24.597 231.297 24.1883C232.153 23.7797 235.598 24.0132 235.598 24.13C235.598 24.2467 236.668 28.0605 234.235 27.7687C231.823 27.4768 230.616 27.3795 230.616 27.3795Z" fill="#050708"/>
<path fill-rule="evenodd" clip-rule="evenodd" d="M227.908 16.5014C226.41 16.5209 225.145 16.6376 224.347 17.3381C223.744 17.8635 223.647 19.1477 225.982 19.0115C231.489 18.6807 236.879 19.3618 239.194 20.1985C240.031 20.4904 243.28 19.0894 235.808 17.4938C231.917 16.6571 229.329 16.4819 227.908 16.5014Z" fill="#060708" stroke="#060708" stroke-width="2" stroke-miterlimit="10" stroke-linecap="round" stroke-linejoin="round"/>
<path d="M186.93 22.3989C186.93 22.3989 182.96 17.437 181.754 21.2898C180.547 25.162 182.707 35.903 186.813 32.7702C186.813 32.7702 186.677 24.8312 186.93 22.3989Z" fill="white" stroke="#020203" stroke-width="2" stroke-miterlimit="10"/>
<path d="M246.513 21.854C246.513 21.854 250.152 15.9192 251.183 20.1805C252.215 24.4419 248.907 34.4046 245.482 31.8361L246.513 21.854Z" fill="#EF96A8" stroke="#020203" stroke-width="2" stroke-miterlimit="10"/>
<path d="M229.332 49.7574C229.332 49.7574 226.297 46.1186 221.412 46.5467C216.528 46.9748 213.201 49.9325 213.201 49.9325C213.201 49.9325 214.446 54.0382 221.412 53.2793C228.379 52.5399 229.332 49.7574 229.332 49.7574Z" fill="#EE96A7" stroke="#020203" stroke-width="2" stroke-miterlimit="10"/>
<path d="M220.225 26.582C220.225 26.582 225.44 42.2265 219.213 40.9228" stroke="#070708" stroke-width="2" stroke-miterlimit="10" stroke-linecap="round" stroke-linejoin="round"/>
<path d="M218.746 -5.68044C217.209 -5.09669 216.781 -3.26761 217.87 -2.11956C223.124 3.40661 238.321 18.7593 245.54 19.8295C251.066 20.6662 247.992 12.4353 244.917 6.1697C242.485 1.18836 238.029 -2.72277 232.503 -4.64915C228.105 -6.20582 222.852 -7.25657 218.746 -5.68044Z" fill="#F2CA07" stroke="#020203" stroke-width="2" stroke-miterlimit="10"/>
<path d="M186.501 18.3695C186.754 19.9845 188.447 20.7823 189.809 19.9456C196.289 15.9177 214.404 4.18432 216.934 -2.68448C218.86 -7.91878 210.201 -6.59561 203.43 -4.86382C198.059 -3.48227 193.311 0.0786066 190.295 5.0794C187.902 9.08782 185.8 14.0302 186.501 18.3695Z" fill="#F2CA07" stroke="#020203" stroke-width="2" stroke-miterlimit="10"/>
<path d="M174.32 61.6456V32.2246" stroke="#020203" stroke-width="2" stroke-miterlimit="10" stroke-linecap="round"/>
<path d="M185.859 61.646V38.043" stroke="#020203" stroke-width="2" stroke-miterlimit="10" stroke-linecap="round"/>
<path d="M250.443 62.8913L251.824 38.043" stroke="#020203" stroke-width="2" stroke-miterlimit="10" stroke-linecap="round"/>
<path d="M243.146 63.1243L244.508 47.8105" stroke="#020203" stroke-width="2" stroke-miterlimit="10" stroke-linecap="round"/>
<path d="M191.463 21.9125C191.463 21.9125 204.014 18.8576 203.858 33.0816C203.702 47.3057 192.553 52.9681 192.553 52.9681C192.553 52.9681 185.684 39.9504 187.338 23.0606L191.463 21.9125Z" fill="#EF96A8"/>
<path d="M210.921 25.2005C211.155 25.2978 211.174 25.5897 210.96 25.7064C209.715 26.3875 206.329 28.022 203.041 27.769C199.986 27.5355 197.184 26.1929 195.977 25.5507C195.744 25.434 195.783 25.0837 196.055 25.0254C197.709 24.6362 201.971 23.7606 205.415 23.9746C207.886 24.1303 209.968 24.8308 210.921 25.2005Z" fill="white" stroke="#060708" stroke-width="2" stroke-miterlimit="10"/>
<path d="M206.974 27.36C206.974 27.36 207.149 24.5774 206.292 24.1688C205.436 23.7602 201.992 23.9937 201.992 24.1104C201.992 24.2272 200.922 28.041 203.354 27.7491C205.787 27.4573 206.974 27.36 206.974 27.36Z" fill="#050708"/>
<path fill-rule="evenodd" clip-rule="evenodd" d="M206.176 17.5137C207.674 17.5331 208.939 17.6499 209.737 18.3504C210.34 18.8758 210.437 20.16 208.102 20.0238C202.595 19.693 197.205 20.3741 194.89 21.2108C194.053 21.5026 190.804 20.1016 198.276 18.506C202.167 17.6693 204.736 17.5137 206.176 17.5137Z" fill="#060708" stroke="#060708" stroke-width="2" stroke-miterlimit="10" stroke-linecap="round" stroke-linejoin="round"/>
<path d="M151.108 106.498C151.108 106.498 150.602 101.673 153.501 92.9941C156.867 82.9147 171.072 79.4316 171.072 79.4316C171.072 79.4316 173.271 91.7099 164.884 106.459L151.108 106.498Z" fill="#EF96A8"/>
<path d="M230.344 49.9126C230.344 49.9126 211.605 51.0218 209.874 48.4922" stroke="#020203" stroke-width="2" stroke-miterlimit="10" stroke-linecap="round" stroke-linejoin="round"/>
<path d="M132.103 127.538C132.103 127.538 131.267 132.636 149.756 138.51C168.245 144.384 170.568 137.845 170.568 137.845C170.568 137.845 141.952 117.452 132.103 127.538Z" fill="#6514C2" stroke="black" stroke-miterlimit="10"/>
<path d="M185.794 74.1309L192.846 70.2045C195.197 72.7847 200.346 76.8233 203.369 77.0477C206.391 77.2721 205.607 77.3842 210.757 77.0477C220.608 76.599 229.897 68.0879 229.897 68.0879L233.641 68.9591L265.608 145.704C265.608 145.704 237.959 156.249 209.525 149.518C181.764 142.899 160.047 143.909 160.047 143.909L185.794 74.1309Z" fill="#F3CB04" stroke="black" stroke-miterlimit="10"/>
<path d="M167.344 124.252L168.547 134.602C168.547 134.602 168.428 139.026 178.698 138.618C193.475 138.034 215.783 138.98 215.783 138.98L233.186 137.372C233.186 137.372 239 136.735 240.99 139.246C242.98 141.758 235.987 140.085 235.987 140.085C235.987 140.085 255.065 147.039 254.399 149.951C253.734 152.864 240.708 146.746 240.708 146.746C240.708 146.746 240.005 147.383 240.753 148.093C242.443 149.639 247.806 156.171 246.659 160.469C246.659 160.469 246.08 162.67 243.345 157.694C240.61 152.719 237.173 150.962 236.984 151.661C236.807 152.259 239.398 156.701 240.188 157.931C240.628 158.604 241.314 159.822 241.639 160.584C241.964 161.346 242.162 162.298 241.845 163.189C241.656 163.888 240.707 163.98 240.254 163.409C238.922 161.493 236.027 157.84 235.936 157.726C235.562 157.371 234.246 156.18 234.07 156.778C233.905 157.274 234.762 159.315 234.996 159.963C235.299 160.798 235.704 162.178 235.691 162.28C235.799 163.119 235.683 165.848 234.655 165.724C233.537 165.485 230.666 159.049 230.666 159.049C230.666 159.049 230.329 158.389 229.416 158.175C228.503 157.961 220.078 155.187 220.078 155.187C220.078 155.187 213.816 153.5 210.803 154.27C207.789 155.04 170.299 160.615 170.299 160.615C170.299 160.615 150.176 163.061 145.676 152.613C144.297 147.275 143.297 142.378 143.597 120.663L155.546 122.865L167.344 124.252Z" fill="white" stroke="#010202" stroke-miterlimit="10"/>
<path d="M172.571 137.714C172.571 137.714 151.442 120.101 132.098 127.281L154.219 92.2775C154.814 91.2677 155.41 90.2581 156.005 89.2483C161.163 80.4975 168.405 74.2148 177.729 74.2148L185.864 74.327L172.571 137.714Z" fill="#6514C2" stroke="black" stroke-miterlimit="10" stroke-linecap="round" stroke-linejoin="round"/>
<path d="M294.317 121.704C294.317 121.704 295.325 126.864 273.048 132.81C250.772 138.756 248.947 132.29 248.947 132.29C248.947 132.29 275.159 113.115 294.317 121.704Z" fill="#6514C2" stroke="black" stroke-miterlimit="10"/>
<path d="M257.203 116.276L256 126.626C256 126.626 256.119 131.049 245.848 130.641C231.072 130.057 208.764 131.004 208.764 131.004L191.361 129.396C191.361 129.396 185.547 128.758 183.557 131.27C181.567 133.781 188.56 132.109 188.56 132.109C188.56 132.109 169.482 139.063 170.148 141.975C170.813 144.887 183.839 138.769 183.839 138.769C183.839 138.769 184.542 139.406 183.794 140.116C182.104 141.662 176.741 148.194 177.887 152.493C177.887 152.493 178.467 154.693 181.202 149.718C183.937 144.743 187.374 142.985 187.563 143.684C187.74 144.282 185.149 148.724 184.359 149.955C183.919 150.627 183.232 151.846 182.907 152.607C182.583 153.369 182.385 154.322 182.701 155.212C182.89 155.912 183.84 156.003 184.292 155.432C185.625 153.517 188.52 149.864 188.61 149.75C188.985 149.395 190.301 148.203 190.477 148.801C190.642 149.297 189.856 152.282 189.621 152.93C189.634 153.031 189.327 154.299 189.339 154.401C189.232 155.24 188.864 157.872 189.892 157.747C191.889 158.109 193.881 151.072 193.881 151.072C193.881 151.072 194.452 149.748 195.365 149.534C196.278 149.321 202.549 143.684 202.549 143.684C202.549 143.684 210.891 141.205 213.905 141.975C216.918 142.745 254.248 152.638 254.248 152.638C254.248 152.638 274.371 155.085 278.871 144.637C280.25 139.298 281.25 134.402 280.949 112.686L269.001 114.888L257.203 116.276Z" fill="white" stroke="#010202" stroke-miterlimit="10"/>
<path d="M249.362 130.892C249.362 130.892 277.172 119.305 294.312 121.846L269.349 86.8447C268.678 85.835 268.006 84.8254 267.334 83.8157C261.513 75.0655 253.342 68.7832 242.819 68.7832L233.64 68.8954L249.362 130.892Z" fill="#6514C2" stroke="black" stroke-miterlimit="10" stroke-linecap="round" stroke-linejoin="round"/>
<path d="M12.4773 305.623L12.309 293.732L5.29837 270.776L28.642 190.257C31.2948 189.616 43.0584 187.355 68.8908 183.434C101.181 178.533 125.67 201.025 129.91 222.771C133.303 240.168 118.759 254.285 111.064 259.168L114.809 304.223L12.4773 305.623Z" fill="#6514C2"/>
<path d="M110.478 259.782L115.35 304.481L12.1725 305.891C12.1725 305.891 15.908 195.542 28.6934 190.393C28.6934 190.393 57.9184 181.23 84.0694 183.813C104.846 185.866 130.648 203.423 129.743 227.195C130.432 238.661 123.977 260.279 92.2517 265.12L65.1495 266.891L65.6128 254.729L66.034 243.672C79.2348 242.128 88.6999 240.078 96.8478 233.181" stroke="#010202" stroke-miterlimit="10"/>
<path d="M17.8749 254.063C19.1227 256.357 19.0871 257.292 21.1396 258.492C31.4163 264.116 43.3562 256.125 43.3562 256.125L52.0177 279.111C-25.9695 323.449 -23.4789 268.09 -23.4789 268.09C-28.6289 213.011 29.8576 189.874 29.8576 189.874" fill="#6514C2"/>
<path d="M17.8749 254.063C19.1227 256.357 19.0871 257.292 21.1396 258.492C31.4163 264.116 43.3562 256.125 43.3562 256.125L52.0177 279.111C-25.9695 323.449 -23.4789 268.09 -23.4789 268.09C-28.6289 213.011 29.8576 189.874 29.8576 189.874" stroke="#010202" stroke-miterlimit="10"/>
<path d="M75.5471 242.316L65.8984 243.897L70.1867 266.026L79.5674 266.026L75.5471 242.316Z" fill="#EE96A7" stroke="black"/>
<path d="M69.4915 255.962C69.4915 255.962 93.2605 252.903 71.7611 261.479C71.7611 261.479 92.9825 260.199 73.2758 266.78C73.2758 266.78 92.183 266.164 72.4763 272.745C62.6265 275.942 52.022 278.923 52.022 278.923L43.3604 255.937C43.3604 255.937 50.7716 246.656 53.1908 248.244C55.61 249.831 52.9983 253.295 52.9983 253.295C52.9983 253.295 59.2414 254.648 65.2602 251.873C66.6221 251.173 66.6221 251.173 67.7792 250.841C73.5719 248.994 86.2931 245.528 69.4915 255.962Z" fill="#E1C099" stroke="#010202" stroke-miterlimit="10" stroke-linecap="round" stroke-linejoin="round"/>
<path d="M65.5737 105.631C73.3139 105.18 81.0324 107.438 87.0805 112.059C95.1106 118.325 99.1226 130.366 98.0436 151.737C98.0436 151.737 96.3202 167.854 81.0369 176.621C72.3938 181.562 62.0056 182.408 52.4752 179.441C46.1926 177.479 38.8828 173.862 34.5634 167.346C28.5134 157.985 13.4058 108.558 65.5737 105.631Z" fill="#E2C099" stroke="black" stroke-miterlimit="10"/>
<path d="M74.8009 142.2C74.4838 142.307 74.4892 142.776 74.7563 142.929C76.5176 143.847 81.318 146.086 85.9816 145.669C90.2746 145.309 94.2312 143.389 95.9183 142.484C96.2348 142.325 96.1763 141.856 95.8038 141.756C93.4638 141.262 87.456 140.131 82.579 140.446C79.0805 140.693 76.1746 141.715 74.8009 142.2Z" fill="white" stroke="#060707" stroke-miterlimit="10"/>
<path d="M80.3978 145.159C80.3978 145.159 80.088 141.307 81.3014 140.72C82.5147 140.134 87.3453 140.392 87.3471 140.549C87.3489 140.705 88.8956 146.001 85.496 145.623C82.0964 145.244 80.3978 145.159 80.3978 145.159Z" fill="#050707"/>
<path d="M52.6294 142.446C52.9489 142.547 52.9543 143.016 52.6909 143.175C50.9513 144.132 46.2039 146.477 41.5318 146.165C37.2316 145.901 33.2316 144.07 31.524 143.203C31.2039 143.051 31.2516 142.581 31.6217 142.473C33.9496 141.926 39.9296 140.661 44.8127 140.867C48.3154 140.984 51.2973 141.94 52.6294 142.446Z" fill="white" stroke="#060707" stroke-miterlimit="10"/>
<path d="M47.0893 145.481C47.0893 145.481 47.3099 141.624 46.0833 141.064C44.8566 140.505 40.0333 140.872 40.0351 141.028C40.0369 141.184 38.6131 146.514 42.0031 146.059C45.3937 145.657 47.0893 145.481 47.0893 145.481Z" fill="#050707"/>
<path d="M74.9627 133.606C74.9627 133.606 68.5673 131.073 69.1477 139.975C69.5335 145.805 70.3339 150.797 70.8969 153.604C71.1236 154.852 70.1826 156.061 68.9102 156.127L64.0862 156.441C62.8668 156.507 61.7951 155.581 61.7812 154.383C61.6842 150.581 61.3292 142.823 60.2255 139.137C58.2406 132.647 54.5354 133.365 52.3076 133.39" stroke="#060707" stroke-miterlimit="10"/>
<path fill-rule="evenodd" clip-rule="evenodd" d="M48.4818 132.491C50.0731 132.473 51.401 132.615 52.2045 133.283C52.8476 133.849 52.9688 135.15 50.527 135.021C44.741 134.721 39.0737 135.514 36.6434 136.374C35.7452 136.697 32.3336 135.276 40.1654 133.574C44.2931 132.694 46.9965 132.508 48.4818 132.491Z" fill="#060707" stroke="#060707" stroke-miterlimit="10" stroke-linecap="round" stroke-linejoin="round"/>
<path fill-rule="evenodd" clip-rule="evenodd" d="M78.6987 131.113C77.1074 131.13 75.7831 131.301 74.9953 131.987C74.3654 132.568 74.2744 133.871 76.7126 133.687C82.4902 133.258 88.1743 133.924 90.6239 134.73C91.5293 135.033 94.9072 133.536 87.0381 132.009C82.944 131.221 80.237 131.095 78.6987 131.113Z" fill="#060707" stroke="#060707" stroke-miterlimit="10" stroke-linecap="round" stroke-linejoin="round"/>
<path d="M74.5811 169.397C74.5811 169.397 71.0862 165.373 65.469 165.905C59.9048 166.436 56.1243 169.812 56.1243 169.812C56.1243 169.812 57.6101 174.432 65.5564 173.458C73.5027 172.483 74.5811 169.397 74.5811 169.397Z" fill="#EE96A7" stroke="black" stroke-miterlimit="10"/>
<path d="M123.619 114.574C118.265 127.948 103.784 125.483 103.784 125.483C105.293 126.768 92.3742 157.218 92.3742 157.218C92.3742 157.218 95.5197 143.012 96.2298 130.835C96.9399 118.658 81.5185 113.307 81.5185 113.307C81.5185 113.307 87.0293 120.414 86.355 122.014C85.6808 123.614 46.9706 129.354 47.0549 125.761C47.1849 122.481 49.7272 113.629 49.7272 113.629C21.9589 118.887 33.0861 158.011 32.3967 157.995C31.7073 157.979 21.9201 127.328 21.9201 127.328C6.42956 127.185 5.14417 109.596 5.52193 100.278C5.74527 95.2805 7.66323 90.4259 11.1971 86.8065C20.4918 77.3775 34.4485 79.5696 38.3016 80.4385C39.0935 80.6127 41.4555 81.7084 42.134 82.1927C46.7276 85.4232 49.7965 92.5792 49.7965 92.5792C61.222 87.3148 73.078 93.1068 73.078 93.1068C76.0893 80.0964 97.6501 79.3344 97.6501 79.3344C110.898 77.8109 121.393 89.6163 124.27 102.656C125.036 106.217 124.896 109.913 123.966 113.383C123.903 113.798 123.787 114.213 123.619 114.574Z" fill="black" stroke="black" stroke-miterlimit="10"/>
<path d="M80.6387 165.421C80.6387 165.421 82.1848 166.081 81.6724 167.649L80.6387 165.421Z" fill="white"/>
<path d="M80.6387 165.421C80.6387 165.421 82.1848 166.081 81.6724 167.649" stroke="black" stroke-miterlimit="10" stroke-linecap="round" stroke-linejoin="round"/>
<path d="M47.5469 166.211C47.5469 166.211 46.0164 166.905 46.565 168.462L47.5469 166.211Z" fill="white"/>
<path d="M47.5469 166.211C47.5469 166.211 46.0164 166.905 46.565 168.462" stroke="black" stroke-miterlimit="10" stroke-linecap="round" stroke-linejoin="round"/>
<path d="M75.7491 169.541C75.7491 169.541 54.387 171.03 52.3382 168.187" stroke="black" stroke-miterlimit="10" stroke-linecap="round" stroke-linejoin="round"/>
<path d="M48.6752 186.117C53.6806 188.635 69.3215 187.924 74.5465 186.793C72.9753 186.81 72.0964 182.53 71.8534 180.387C66.6456 183.02 56.3641 180.989 51.8742 179.645C51.91 182.734 49.7565 185.246 48.6752 186.117Z" fill="#E2C099" stroke="black"/>
<path d="M36.1523 188.05C36.1523 187.418 43.8356 186.382 47.6772 185.943C48.0345 183.748 49.2317 179.673 51.1614 180.938C53.5736 182.518 75.5512 180.938 76.3552 180.938C76.9985 180.938 76.0872 182.343 75.5512 183.045C77.6953 182.957 82.6805 182.992 85.4679 183.835C88.9521 184.889 69.6547 218.609 61.8822 217.819C54.1096 217.028 36.1523 188.841 36.1523 188.05Z" fill="#EE96A7" stroke="black"/>
<path d="M35.8867 259.44C37.1732 259.44 41.4258 257.157 43.3913 256.016L52.2359 279.198L44.7314 283.15L35.8867 259.44Z" fill="#EE96A7" stroke="black"/>
<path d="M135.063 192.258C135.063 192.258 139.106 202.667 135.912 209.101C133.499 213.948 127.312 213.099 122.933 212.876C112.993 212.384 97.0435 218.729 93.1567 228.714C88.421 240.888 84.3555 253.956 84.3555 253.956H224.371C224.371 253.956 225.376 235.817 213.894 228.356C202.39 220.918 178.734 213.479 178.734 213.479C178.734 213.479 166.873 208.408 166.716 200.635C166.56 192.861 159.121 193.665 159.121 193.665L135.063 192.258Z" fill="#CE9F66" stroke="#010202" stroke-width="2" stroke-miterlimit="10" stroke-linecap="round" stroke-linejoin="round"/>
<path d="M173.272 52.4692C173.86 57.2648 180.468 58.1062 182.233 53.591C184.249 48.4868 191.893 50.45 191.193 55.8907C190.577 60.6863 196.765 63.1262 199.593 59.228C202.813 54.7689 209.729 58.5829 207.685 63.6871C205.893 68.1743 211.269 72.1005 214.994 68.9876C219.222 65.482 224.962 70.8946 221.742 75.3257C218.886 79.2239 223.142 84.3561 227.482 82.2808C232.438 79.925 236.666 86.5997 232.438 90.1053C228.714 93.1902 231.542 99.1918 236.274 98.2944C241.65 97.2567 244.086 104.773 239.13 107.1C234.762 109.148 235.994 115.682 240.81 115.991C246.299 116.327 246.775 124.208 241.398 125.217C236.666 126.115 236.246 132.761 240.838 134.248C246.047 135.93 244.59 143.699 239.102 143.334C234.286 143.026 232.242 149.336 236.302 151.944C240.95 154.889 237.59 162.04 232.354 160.329C227.762 158.815 224.206 164.452 227.51 167.958C231.262 171.968 226.25 178.054 221.63 175.081C217.57 172.473 212.725 177.044 215.05 181.279C217.71 186.075 211.325 190.73 207.573 186.72C204.269 183.186 198.445 186.383 199.677 191.066C201.049 196.395 193.713 199.284 191.081 194.488C188.757 190.253 182.317 191.908 182.345 196.732C182.345 202.228 174.532 203.21 173.188 197.881C171.984 193.198 165.348 193.198 164.172 197.881C162.828 203.21 154.988 202.228 155.016 196.732C155.016 191.908 148.603 190.253 146.279 194.488C143.647 199.312 136.311 196.395 137.683 191.066C138.887 186.383 133.063 183.186 129.787 186.72C126.035 190.73 119.651 186.075 122.311 181.279C124.635 177.044 119.791 172.501 115.73 175.081C111.11 178.026 106.07 171.94 109.85 167.958C113.154 164.452 109.598 158.815 105.006 160.329C99.7979 162.04 96.4378 154.889 101.058 151.944C105.146 149.364 103.074 143.026 98.2578 143.334C92.7977 143.699 91.3136 135.93 96.5218 134.248C101.114 132.761 100.694 126.115 95.9618 125.217C90.5856 124.208 91.0616 116.299 96.5498 115.991C101.366 115.71 102.598 109.148 98.2298 107.1C93.2737 104.773 95.7097 97.2567 101.086 98.2944C105.818 99.2198 108.646 93.1902 104.922 90.1053C100.694 86.5997 104.922 79.9531 109.878 82.2808C114.246 84.3561 118.474 79.2239 115.618 75.3257C112.398 70.8946 118.138 65.482 122.367 68.9876C126.091 72.0725 131.467 68.1743 129.675 63.6871C127.659 58.5829 134.547 54.7689 137.767 59.228C140.595 63.1542 146.783 60.6863 146.167 55.8907C145.467 50.45 153.112 48.4868 155.128 53.591C156.892 58.0781 163.5 57.2648 164.088 52.4692C164.704 47.0285 172.6 47.0285 173.272 52.4692Z" fill="#F2CA07" stroke="#020203" stroke-width="2" stroke-miterlimit="10"/>
<path fill-rule="evenodd" clip-rule="evenodd" d="M162.429 147.939C160.753 147.939 159.324 148.095 158.453 148.877C157.782 149.48 157.671 150.888 160.284 150.731C166.45 150.352 172.481 151.133 175.05 152.049C175.988 152.384 179.607 150.821 171.252 149.034C166.919 148.118 164.037 147.917 162.429 147.939Z" fill="#060708" stroke="#060708" stroke-width="2" stroke-miterlimit="10" stroke-linecap="round" stroke-linejoin="round"/>
<path fill-rule="evenodd" clip-rule="evenodd" d="M138.145 146.799C139.82 146.799 141.25 146.955 142.121 147.737C142.791 148.34 142.903 149.747 140.289 149.591C134.124 149.211 128.093 149.993 125.524 150.909C124.586 151.244 120.967 149.68 129.321 147.893C133.655 146.955 136.537 146.776 138.145 146.799Z" fill="#060708" stroke="#060708" stroke-width="2" stroke-miterlimit="10" stroke-linecap="round" stroke-linejoin="round"/>
<path d="M138.191 149.301C138.191 149.301 144.111 146.844 143.664 155.288C143.217 163.732 141.788 170.478 141.788 170.478L150.701 170.925C150.701 170.925 150.634 159.152 152.019 154.394C153.806 148.229 157.268 148.854 159.323 148.899" stroke="#060708" stroke-width="2" stroke-miterlimit="10"/>
<path d="M138.102 184.193C138.102 184.193 159.055 185.444 160.976 182.607" stroke="#020203" stroke-width="2" stroke-miterlimit="10" stroke-linecap="round" stroke-linejoin="round"/>
<path d="M139.219 184.037C139.219 184.037 142.614 179.972 148.065 180.463C153.515 180.955 157.246 184.261 157.246 184.261C157.246 184.261 155.861 188.862 148.065 188.013C140.269 187.12 139.219 184.037 139.219 184.037Z" stroke="#020203" stroke-width="2" stroke-miterlimit="10"/>
<path d="M148.712 125.512C145.071 125.333 141.988 121.357 138.57 122.407C134.84 123.546 131.355 125.4 128.295 127.924C120.454 134.402 113.73 146.644 121.347 169.272C121.347 169.272 129.747 202.891 150.007 202.087C150.007 202.087 164.84 204.477 176.791 184.708C181.906 176.242 190.551 132.861 165.331 124.082C157.915 121.513 155.078 125.802 148.712 125.512Z" fill="#CE9F66" stroke="#010202" stroke-width="2" stroke-miterlimit="10" stroke-linecap="round" stroke-linejoin="round"/>
<path d="M139.507 156.561C139.753 156.651 139.775 157.008 139.552 157.142C138.167 157.902 134.37 159.733 130.684 159.443C127.266 159.175 124.139 157.678 122.776 156.963C122.508 156.829 122.575 156.45 122.843 156.383C124.697 155.958 129.455 154.975 133.297 155.199C136.112 155.355 138.458 156.137 139.507 156.561Z" fill="white" stroke="#010202" stroke-width="2" stroke-miterlimit="10"/>
<path d="M135.106 158.95C135.106 158.95 135.307 155.845 134.346 155.399C133.385 154.952 129.543 155.198 129.543 155.332C129.543 155.466 128.359 159.732 131.062 159.397C133.765 159.062 135.106 158.95 135.106 158.95Z" fill="#050708"/>
<path d="M157.133 156.54C156.887 156.629 156.865 156.987 157.088 157.121C158.473 157.88 162.271 159.712 165.956 159.421C169.374 159.153 172.501 157.657 173.864 156.942C174.132 156.808 174.065 156.428 173.797 156.361C171.943 155.937 167.185 154.954 163.343 155.177C160.528 155.333 158.183 156.115 157.133 156.54Z" fill="white" stroke="#010202" stroke-width="2" stroke-miterlimit="10"/>
<path d="M161.533 158.929C161.533 158.929 161.332 155.824 162.293 155.377C163.253 154.93 167.095 155.176 167.095 155.31C167.095 155.444 168.279 159.711 165.576 159.376C162.873 159.041 161.533 158.929 161.533 158.929Z" fill="#050708"/>
<path fill-rule="evenodd" clip-rule="evenodd" d="M162.429 147.939C160.753 147.939 159.324 148.095 158.453 148.877C157.782 149.48 157.671 150.888 160.284 150.731C166.45 150.352 172.481 151.133 175.05 152.049C175.988 152.384 179.607 150.821 171.252 149.034C166.919 148.118 164.037 147.917 162.429 147.939Z" fill="#010202" stroke="#010202" stroke-width="2" stroke-miterlimit="10" stroke-linecap="round" stroke-linejoin="round"/>
<path fill-rule="evenodd" clip-rule="evenodd" d="M138.145 146.799C139.82 146.799 141.25 146.955 142.121 147.737C142.791 148.34 142.903 149.747 140.289 149.591C134.124 149.211 128.093 149.993 125.524 150.909C124.586 151.244 120.967 149.68 129.321 147.893C133.655 146.955 136.537 146.776 138.145 146.799Z" fill="#010202" stroke="#010202" stroke-width="2" stroke-miterlimit="10" stroke-linecap="round" stroke-linejoin="round"/>
<path d="M138.191 149.301C138.191 149.301 144.111 146.844 143.664 155.288C143.217 163.732 141.788 170.478 141.788 170.478L150.701 170.925C150.701 170.925 150.634 159.152 152.019 154.394C153.806 148.229 157.268 148.854 159.323 148.899" stroke="#010202" stroke-width="2" stroke-miterlimit="10"/>
<path d="M176.635 170.075C176.635 171.773 174.178 174.722 171.14 174.722C168.102 174.722 165.645 171.773 165.645 170.075C165.645 168.378 168.102 165.139 171.14 165.139C174.178 165.139 176.635 168.378 176.635 170.075Z" fill="#EF96A8"/>
<path d="M131.154 169.249C131.154 170.947 128.697 173.896 125.659 173.896C122.621 173.896 120.164 170.947 120.164 169.249C120.164 167.552 122.621 164.312 125.659 164.312C128.697 164.312 131.154 167.552 131.154 169.249Z" fill="#EF96A8"/>
<path d="M139.219 184.037C139.219 184.037 142.614 179.972 148.065 180.463C153.515 180.955 157.246 184.261 157.246 184.261C157.246 184.261 155.861 188.862 148.065 188.013C140.269 187.12 139.219 184.037 139.219 184.037Z" fill="#EF96A8" stroke="#010202" stroke-width="2" stroke-miterlimit="10"/>
<path d="M138.102 184.193C138.102 184.193 159.055 185.444 160.976 182.607" stroke="#020203" stroke-width="2" stroke-miterlimit="10" stroke-linecap="round" stroke-linejoin="round"/>
<path d="M117.639 160.494C117.639 160.494 114.779 156.339 113.573 158.751C112.367 161.164 112.657 170.367 117.884 171.328C117.884 171.328 119.426 171.395 119.359 170.613C119.314 169.809 117.639 160.494 117.639 160.494Z" fill="#CE9F66" stroke="#4D2D13" stroke-width="2" stroke-miterlimit="10" stroke-linecap="round" stroke-linejoin="round"/>
<path d="M111.477 178.05C112.057 173.426 116.994 168.557 116.994 168.557C116.994 168.557 119.362 174.677 119.384 178.653" stroke="#55B36D" stroke-width="2" stroke-miterlimit="10"/>
<path d="M111.14 178.184C111.297 178.273 111.498 178.251 111.632 178.117C111.9 177.871 112.95 177.38 114.089 177.893C115.809 178.653 116.524 182.249 113.799 183.277C111.073 184.304 108.661 183.344 108.169 181.959C107.723 180.641 107.499 176.352 111.14 178.184Z" fill="#E52926" stroke="#020203" stroke-width="2" stroke-miterlimit="10"/>
<path d="M119.449 177.895C119.605 177.984 119.806 177.962 119.94 177.828C120.208 177.582 121.258 177.091 122.397 177.604C124.117 178.364 124.832 181.96 122.107 182.988C119.382 184.015 116.969 183.055 116.478 181.67C116.031 180.352 115.83 176.063 119.449 177.895Z" fill="#E52926" stroke="#020203" stroke-width="2" stroke-miterlimit="10"/>
<path d="M182.175 161.9C182.175 161.9 184.587 157.477 186.039 159.756C187.491 162.034 188.139 171.215 183.046 172.712C183.046 172.712 181.527 172.935 181.504 172.153C181.482 171.349 182.175 161.9 182.175 161.9Z" fill="#CE9F66" stroke="#4D2D13" stroke-width="2" stroke-miterlimit="10" stroke-linecap="round" stroke-linejoin="round"/>
<path d="M178.848 180.709C179.428 176.085 184.365 171.215 184.365 171.215C184.365 171.215 186.733 177.336 186.755 181.312" stroke="#55B36D" stroke-width="2" stroke-miterlimit="10"/>
<path d="M178.49 180.82C178.646 180.91 178.847 180.888 178.981 180.753C179.249 180.508 180.299 180.016 181.438 180.53C183.158 181.29 183.873 184.886 181.148 185.914C178.423 186.941 176.01 185.981 175.519 184.596C175.094 183.278 174.871 178.989 178.49 180.82Z" fill="#E52926" stroke="#020203" stroke-width="2" stroke-miterlimit="10"/>
<path d="M186.824 180.553C186.98 180.642 187.181 180.62 187.315 180.486C187.583 180.24 188.633 179.749 189.772 180.263C191.492 181.022 192.207 184.618 189.482 185.646C186.757 186.674 184.344 185.713 183.853 184.328C183.406 182.988 183.205 178.699 186.824 180.553Z" fill="#E52926" stroke="#020203" stroke-width="2" stroke-miterlimit="10"/>
<path d="M232.205 263.712L232.195 263.453C226.834 265.074 208.455 266.269 196.985 265.771C197.883 269.361 199.698 283.771 196.29 291.958L194.668 304.346C234.576 322.498 233.448 294.529 232.205 263.712Z" fill="#CE9F67" stroke="black" stroke-width="2"/>
<path d="M122.587 212.902C125.87 213.442 132.436 213.6 132.436 209.91C132.436 204.674 131.813 204.549 133.683 204.674C135.553 204.798 140.914 208.663 153.755 207.042C166.597 205.422 169.589 201.681 171.833 202.18C174.077 202.679 173.454 204.798 175.449 207.042C177.443 209.287 182.68 213.525 205.37 221.006C228.061 228.486 234.918 238.71 236.663 257.286V262.647C236.663 263.086 218.67 266.681 195.77 265.639L191.656 251.302C168.994 250.305 141.29 258.859 116.228 258.907L115.873 266.004C115.84 267.311 115.804 268.394 115.73 268.881C99.7437 268.772 87.4025 266.001 75.0859 265.889C76.7483 248.517 75.9587 209.91 122.587 212.902Z" fill="white"/>
<path d="M115.73 268.881C99.7437 268.772 87.4025 266.001 75.0859 265.889C76.7483 248.517 75.9587 209.91 122.587 212.902C125.87 213.442 132.436 213.6 132.436 209.91C132.436 204.674 131.813 204.549 133.683 204.674C135.553 204.798 140.914 208.663 153.755 207.042C166.597 205.422 169.589 201.681 171.833 202.18C174.077 202.679 173.454 204.798 175.449 207.042C177.443 209.287 182.68 213.525 205.37 221.006C228.061 228.486 234.918 238.71 236.663 257.286C236.663 258.574 236.663 261.45 236.663 262.647C236.663 263.086 218.67 266.681 195.77 265.639L191.656 251.302C168.994 250.305 141.29 258.859 116.228 258.907M115.73 268.881C115.939 267.509 115.847 261.4 116.228 258.907M115.73 268.881L116.228 258.907" stroke="black" stroke-width="2"/>
<path d="M128.945 224.124V213.152C128.945 213.851 122.795 213.443 119.719 213.152L113.984 286.959H193.776V216.893L185.797 213.152C185.963 216.809 186.196 226.268 185.797 234.846C185.398 243.423 183.469 244.82 182.555 244.446C169.755 244.612 142.585 244.844 136.301 244.446C130.017 244.047 128.779 241.038 128.945 239.583V224.124Z" fill="#D43442" stroke="black" stroke-width="2"/>
<path d="M112.239 268.757L114.544 281.481C114.544 281.481 114.753 286.971 127.321 285.621C145.404 283.681 172.851 283.018 172.851 283.018L194.074 279.594C194.074 279.594 201.156 278.326 203.799 281.274C206.442 284.221 197.727 282.725 197.727 282.725C197.727 282.725 221.692 289.771 221.109 293.434C220.526 297.096 204.054 290.588 204.054 290.588C204.054 290.588 203.242 291.436 204.217 292.254C206.415 294.03 213.518 301.681 212.456 307.102C212.456 307.102 211.922 309.876 208.167 303.937C204.413 297.998 200.054 296.103 199.879 296.985C199.71 297.74 203.245 303.03 204.312 304.49C204.906 305.287 205.846 306.74 206.306 307.657C206.766 308.574 207.085 309.738 206.768 310.867C206.592 311.75 205.434 311.941 204.833 311.271C203.045 309.007 199.2 304.72 199.08 304.586C198.592 304.177 196.882 302.809 196.713 303.564C196.552 304.192 197.755 307.826 198.095 308.609C198.088 308.736 198.208 308.87 198.201 308.997C198.399 310.027 199.42 314.669 198.149 314.6C196.758 314.396 192.719 306.658 192.719 306.658C192.719 306.658 192.253 305.868 191.116 305.678C189.979 305.489 179.42 302.744 179.42 302.744C179.42 302.744 171.601 301.169 167.966 302.372C164.33 303.574 118.779 313.565 118.779 313.565C118.779 313.565 94.2855 318.252 87.9272 305.678C85.8077 299.177 84.1872 293.193 82.8158 266.263L97.6521 268.009L112.239 268.757Z" fill="#CE9F67" stroke="#010202" stroke-width="2" stroke-miterlimit="10"/>
<path d="M141.322 279.893C147.74 277.748 160.155 281.203 166.395 282.991C163.164 283.884 156.3 285.671 154.695 285.671C152.689 285.671 153.466 297.563 151.352 294.384C150.015 292.373 151.018 285.671 150.015 285.671C148.343 285.671 145.669 297.735 144.332 294.384C142.994 291.033 147.675 285.671 145.669 285.671C143.663 285.671 139.651 296.73 138.314 294.384C137.55 293.043 138.314 290.698 139.651 287.012C140.721 284.063 138.983 284.8 138.314 285.671C136.085 288.576 133.031 293.431 131.961 291.286C130.624 288.605 133.298 282.574 141.322 279.893Z" fill="#CE9F67" stroke="black" stroke-width="2"/>
<path d="M257.251 130.526C257.251 130.526 302.907 126.615 307.445 168.026C311.984 209.457 307.445 215.292 307.445 215.292L210.968 217.572C210.968 217.572 184.616 127.285 257.251 130.526Z" fill="#64B332" stroke="#020203" stroke-width="2" stroke-miterlimit="10"/>
<path d="M239.894 221.462C242.947 215.272 238.514 210.587 238.514 210.587L262.23 206.634C262.23 206.634 269.404 205.86 269.55 213.348C269.718 220.835 281.116 225.708 281.116 225.708C297.293 231.203 316.268 231.38 332.587 229.611C337.289 227.944 341.956 227.555 345.52 227.747C353.016 226.398 359.38 224.778 363.845 223.36C365.236 229.849 354.807 229.849 350.172 228.459C349.059 228.125 347.452 227.851 345.52 227.747C341.495 228.471 337.145 229.117 332.587 229.611C329.22 230.804 325.836 232.652 322.826 235.411C314.482 243.059 309.848 257.428 308.921 260.209C308.179 262.433 303.359 263.608 301.041 263.917L214.366 259.513C206.255 255.187 215.76 223.36 227.387 225.101C231.633 225.31 237.572 226.126 239.894 221.462Z" fill="#CE9F67" stroke="#020203" stroke-width="2" stroke-miterlimit="10" stroke-linecap="round" stroke-linejoin="round"/>
<path d="M251.644 144.79C244.345 144.455 237.109 146.735 231.483 151.399C223.933 157.631 217.47 169.427 224.79 191.178C224.79 191.178 235.059 222.173 253.589 219.956C253.589 219.956 270.133 219.161 278.143 206.048C283.831 196.762 300.793 147.07 251.644 144.79Z" fill="#CE9F66" stroke="#020203" stroke-width="2" stroke-miterlimit="10" stroke-linecap="round" stroke-linejoin="round"/>
<path d="M242.738 176.328C242.988 176.432 243.009 176.746 242.779 176.872C241.441 177.604 237.802 179.36 234.246 179.089C230.963 178.838 227.951 177.395 226.634 176.704C226.383 176.579 226.424 176.202 226.717 176.14C228.495 175.721 233.096 174.78 236.777 175.01C239.475 175.157 241.734 175.931 242.738 176.328Z" fill="white" stroke="#060708" stroke-width="2" stroke-miterlimit="10"/>
<path d="M238.493 178.649C238.493 178.649 238.681 175.659 237.761 175.219C236.841 174.78 233.139 175.031 233.139 175.157C233.139 175.282 231.988 179.402 234.603 179.068C237.217 178.754 238.493 178.649 238.493 178.649Z" fill="#050708"/>
<path fill-rule="evenodd" clip-rule="evenodd" d="M241.418 166.939C243.028 166.96 244.387 167.085 245.245 167.838C245.893 168.403 245.998 169.783 243.488 169.637C237.549 169.281 231.755 170.013 229.287 170.913C228.388 171.226 224.895 169.721 232.926 168.006C237.109 167.106 239.891 166.918 241.418 166.939Z" fill="#060708" stroke="#060708" stroke-width="2" stroke-miterlimit="10" stroke-linecap="round" stroke-linejoin="round"/>
<path d="M285.508 173.274C285.508 173.274 289.774 167.92 291.092 172.082C292.389 176.244 290.067 187.789 285.633 184.443C285.633 184.443 285.78 175.889 285.508 173.274Z" fill="#CE9F66" stroke="#020203" stroke-width="2" stroke-miterlimit="10" stroke-linecap="round" stroke-linejoin="round"/>
<path d="M220.945 172.669C220.945 172.669 216.951 166.332 215.884 170.933C214.817 175.534 218.561 186.2 222.2 183.377L220.945 172.669Z" fill="#CE9F66" stroke="#020203" stroke-width="2" stroke-miterlimit="10" stroke-linecap="round" stroke-linejoin="round"/>
<path d="M238.805 202.89C238.805 202.89 258.966 204.082 260.827 201.363" stroke="#020203" stroke-width="2" stroke-miterlimit="10" stroke-linecap="round" stroke-linejoin="round"/>
<path d="M239.891 202.723C239.891 202.723 243.153 198.812 248.403 199.272C253.652 199.732 257.229 202.932 257.229 202.932C257.229 202.932 255.89 207.345 248.403 206.529C240.915 205.693 239.891 202.723 239.891 202.723Z" stroke="#020203" stroke-width="2" stroke-miterlimit="10"/>
<path d="M249.702 177.771C249.702 177.771 244.097 194.607 250.789 193.206" stroke="#070708" stroke-width="2" stroke-miterlimit="10" stroke-linecap="round" stroke-linejoin="round"/>
<path d="M251.291 143.074C252.943 143.702 253.403 145.668 252.232 146.901C246.564 152.82 230.209 169.342 222.45 170.514C216.51 171.413 219.815 162.566 223.119 155.811C225.734 150.457 230.544 146.253 236.484 144.162C241.21 142.509 246.878 141.38 251.291 143.074Z" fill="#64B332" stroke="#020203" stroke-width="2" stroke-miterlimit="10"/>
<path d="M285.968 168.947C285.696 170.682 283.876 171.54 282.412 170.641C275.448 166.311 255.935 153.679 253.216 146.296C251.125 140.67 260.473 142.093 267.73 143.954C273.503 145.439 278.606 149.266 281.848 154.662C284.462 158.97 286.721 164.283 285.968 168.947Z" fill="#64B332" stroke="#020203" stroke-width="2" stroke-miterlimit="10"/>
<path d="M286.656 215.501V190.111" stroke="#020203" stroke-width="2" stroke-miterlimit="10" stroke-linecap="round"/>
<path d="M217.159 216.861L215.695 190.111" stroke="#020203" stroke-width="2" stroke-miterlimit="10" stroke-linecap="round"/>
<path d="M225.044 217.09L223.559 200.631" stroke="#020203" stroke-width="2" stroke-miterlimit="10" stroke-linecap="round"/>
<path d="M259.698 176.308C259.447 176.413 259.426 176.727 259.656 176.852C260.995 177.584 264.634 179.341 268.189 179.069C271.473 178.818 274.485 177.375 275.802 176.685C276.053 176.559 276.011 176.183 275.718 176.12C273.941 175.702 269.34 174.761 265.659 174.991C262.961 175.137 260.702 175.911 259.698 176.308Z" fill="white" stroke="#060708" stroke-width="2" stroke-miterlimit="10"/>
<path d="M263.946 178.63C263.946 178.63 263.757 175.639 264.678 175.2C265.598 174.761 269.3 175.012 269.3 175.137C269.3 175.263 270.45 179.383 267.836 179.048C265.221 178.734 263.946 178.63 263.946 178.63Z" fill="#050708"/>
<path fill-rule="evenodd" clip-rule="evenodd" d="M264.802 168.046C263.191 168.067 261.832 168.193 260.974 168.946C260.326 169.51 260.221 170.891 262.731 170.744C268.671 170.389 274.464 171.121 276.932 172.02C277.831 172.334 281.324 170.828 273.293 169.113C269.131 168.214 266.349 168.026 264.802 168.046Z" fill="#060708" stroke="#060708" stroke-width="2" stroke-miterlimit="10" stroke-linecap="round" stroke-linejoin="round"/>
<path d="M228.684 187.287C227.471 191.219 226.488 193.122 226.488 193.122L228.684 187.287Z" fill="#E49BC4"/>
<path d="M215.294 258.586C226.186 243.522 222.632 233.325 222.941 225.445H230.589C232.072 238.238 237.155 242.209 239.396 242.131C244.958 243.136 259.048 244.82 270.914 243.522C282.779 242.224 284.51 231.548 283.892 226.372L291.308 229.385C290.381 249.779 287.832 243.522 298.492 257.89C309.153 272.259 298.492 302.85 298.492 302.85H217.148C217.148 302.85 204.401 273.649 215.294 258.586Z" fill="#64B332" stroke="black" stroke-width="2"/>
</g>
</svg>
