<svg width="174" height="77" viewBox="0 0 174 77" fill="none" xmlns="http://www.w3.org/2000/svg">
<path d="M142.642 69.9121C159.873 69.9121 173.842 55.9433 173.842 38.7119C173.842 21.4805 159.873 7.51172 142.642 7.51172C125.41 7.51172 111.441 21.4805 111.441 38.7119C111.441 55.9433 125.41 69.9121 142.642 69.9121Z" fill="#9993E4"/>
<path d="M157.303 34.5762C152.523 44.1178 147.762 53.5472 142.946 63.145L128.734 34.5762H157.303Z" fill="white"/>
<path d="M157.303 33.0732H128.734L143.019 17.2852L157.303 33.0732Z" fill="white"/>
<path d="M118.961 34.5762C121.846 34.5762 124.482 34.5762 127.118 34.5762C127.286 34.5973 127.447 34.6556 127.589 34.7466C127.73 34.8376 127.849 34.9591 127.937 35.1019C131.95 42.7299 135.945 50.3695 139.923 58.0209C139.923 58.1085 139.923 58.2136 140.012 58.6341L118.961 34.5762Z" fill="white"/>
<path d="M145.273 58.5635L148.115 53.2663C151.29 47.3335 154.503 41.4184 157.679 35.4679C157.776 35.1841 157.973 34.941 158.237 34.78C158.501 34.619 158.816 34.5501 159.128 34.5851C161.69 34.5851 164.235 34.5851 167.076 34.5851L145.496 58.6341L145.273 58.5635Z" fill="white"/>
<path d="M128.734 33.0732L129.333 22.2466C129.329 21.3808 129.371 20.5156 129.456 19.6554C129.456 19.2536 129.914 18.6309 130.196 18.5908C133.716 18.1087 137.237 17.707 140.758 17.2852C140.934 17.2852 141.11 17.2852 141.515 17.2852L128.734 33.0732Z" fill="white"/>
<path d="M157.05 31.5696L144.52 17.5452L144.645 17.2852L150.176 17.8796C151.966 18.0839 153.756 18.3254 155.546 18.4925C156.226 18.4925 156.531 18.7154 156.566 19.477C156.781 23.4707 157.05 27.483 157.3 31.4767L157.05 31.5696Z" fill="white"/>
<path d="M127.231 20.3471L126.705 33.0718H118.961L127.056 20.291L127.231 20.3471Z" fill="white"/>
<path d="M157.301 20.291L167.074 33.0718H158.074L157.301 20.291Z" fill="white"/>
<path d="M142.175 74.4221C137.154 74.4068 132.193 73.3111 127.624 71.208C123.054 69.1049 118.981 66.0425 115.675 62.2249C112.368 58.4073 109.905 53.922 108.449 49.0676C106.993 44.2132 106.577 39.101 107.229 34.0716C107.882 29.0422 109.587 24.2109 112.232 19.8994C114.877 15.5878 118.402 11.895 122.57 9.06667C126.738 6.23837 131.455 4.33953 136.407 3.49658C141.358 2.65362 146.431 2.8859 151.287 4.17794" stroke="#9993E4" stroke-width="5" stroke-miterlimit="10" stroke-linecap="round"/>
<path d="M38.7046 69.9052C55.9858 69.9052 69.9951 55.896 69.9951 38.6147C69.9951 21.3334 55.9858 7.32422 38.7046 7.32422C21.4233 7.32422 7.41406 21.3334 7.41406 38.6147C7.41406 55.896 21.4233 69.9052 38.7046 69.9052Z" fill="#9993E4"/>
<path d="M31.6845 33.0951C30.58 32.7976 29.5175 32.3616 28.5225 31.7974C27.3668 31.0107 26.4702 29.8991 25.9459 28.6031C25.4216 27.307 25.2931 25.8847 25.5767 24.5157C25.8603 23.1467 26.5432 21.8925 27.5392 20.9114C28.5352 19.9303 29.7996 19.2663 31.1727 19.0034C31.9475 18.8392 32.7387 18.7655 33.5305 18.784C37.8622 18.784 42.1939 18.784 46.5438 18.784C48.3885 18.7785 50.1671 19.4705 51.523 20.7213C52.8788 21.9721 53.7117 23.6892 53.8547 25.5283C53.8996 26.4955 53.7464 27.4617 53.4046 28.3676C53.0628 29.2734 52.5397 30.0999 51.8671 30.7965C51.1946 31.493 50.3868 32.0448 49.4935 32.418C48.6001 32.7913 47.6399 32.9781 46.6718 32.9671H40.6951C40.3296 32.9671 39.8909 32.8209 39.5802 33.1865L31.6845 33.0951Z" fill="white"/>
<path d="M31.6805 33.0938L39.5396 33.1851C39.5396 40.2584 39.5396 47.3316 39.5396 54.4232C39.5301 55.7016 39.1734 56.9534 38.5076 58.0448C37.8419 59.1362 36.892 60.0262 35.7597 60.6197C34.6273 61.2131 33.3549 61.4877 32.0786 61.414C30.8022 61.3404 29.5699 60.9213 28.5133 60.2016C27.4566 59.4819 26.6155 58.4886 26.0796 57.3279C25.5437 56.1672 25.3333 54.8826 25.4708 53.6116C25.6084 52.3406 26.0888 51.1308 26.8606 50.1116C27.6324 49.0924 28.6666 48.3021 29.8528 47.8251L31.6805 47.222C30.0605 46.9446 28.5664 46.172 27.4036 45.0104C26.5262 44.1405 25.9039 43.0469 25.6042 41.8482C25.3046 40.6496 25.3391 39.3918 25.7039 38.2113C26.0362 37.0216 26.6783 35.9414 27.5645 35.0808C28.4507 34.2203 29.5493 33.6103 30.7483 33.3131L31.6805 33.0938Z" fill="white"/>
<path d="M46.577 47.2213C44.7025 47.1925 42.9147 46.4262 41.601 45.0886C40.2874 43.751 39.5536 41.9497 39.5586 40.0749C39.6459 38.228 40.4298 36.4827 41.7525 35.1905C43.0751 33.8984 44.8382 33.1555 46.6867 33.1113C48.563 33.1353 50.3546 33.8963 51.6746 35.23C52.9946 36.5637 53.7371 38.363 53.7417 40.2394C53.7298 41.1683 53.535 42.0858 53.1685 42.9394C52.802 43.793 52.2709 44.566 51.6056 45.2144C50.9402 45.8627 50.1537 46.3736 49.2909 46.718C48.4281 47.0623 47.5059 47.2334 46.577 47.2213Z" fill="white"/>
<path d="M72.7524 47.9722C70.971 54.7555 67.2179 60.8582 61.9679 65.5083C56.7178 70.1585 50.2067 73.1473 43.2579 74.0968C36.3091 75.0462 29.2348 73.9137 22.9297 70.8423C16.6247 67.771 11.3721 62.8989 7.83619 56.8421C4.3003 50.7853 2.64 43.816 3.06526 36.8155C3.49051 29.8151 5.98221 23.098 10.2252 17.5138C14.4683 11.9295 20.272 7.72902 26.9025 5.44346C33.533 3.15791 40.6924 2.89003 47.4751 4.67362" stroke="#9993E4" stroke-width="5" stroke-miterlimit="10" stroke-linecap="round"/>
</svg>
