<svg width="285" height="170" viewBox="0 0 285 170" fill="none" xmlns="http://www.w3.org/2000/svg">
<path d="M39.2701 166.895C36.2085 166.891 33.1601 166.491 30.2009 165.704C25.633 164.499 21.3464 162.403 17.5858 159.537C13.8251 156.67 10.6641 153.088 8.28316 148.995C5.90224 144.903 4.34801 140.38 3.70929 135.685C3.07057 130.99 3.35987 126.214 4.56059 121.631C5.76132 117.048 7.84999 112.748 10.7074 108.975C13.5647 105.201 17.1348 102.03 21.2138 99.6411C25.2928 97.2523 29.8008 95.693 34.4804 95.0522C39.1601 94.4114 43.9197 94.7016 48.4876 95.9063" stroke="#6DCCE2" stroke-width="5" stroke-miterlimit="10" stroke-linecap="round"/>
<path d="M144.539 166.895C141.459 166.88 138.393 166.478 135.413 165.7C126.371 163.051 118.718 156.981 114.078 148.778C109.438 140.576 108.177 130.887 110.563 121.77C112.948 112.652 118.792 104.824 126.854 99.9467C134.916 95.0699 144.56 93.5288 153.74 95.6507" stroke="#6DCCE2" stroke-width="5" stroke-miterlimit="10" stroke-linecap="round"/>
<path d="M252.653 75.9259C249.542 75.9136 246.445 75.5125 243.436 74.7322C234.237 72.1367 226.432 66.0783 221.695 57.8561C216.957 49.6338 215.664 39.9022 218.093 30.7478C220.522 21.5934 226.479 13.7451 234.688 8.8856C242.896 4.02609 252.702 2.54231 262.003 4.75234" stroke="#6DCCE2" stroke-width="5" stroke-miterlimit="10" stroke-linecap="round"/>
<path d="M252.753 70.793C270.169 70.793 284.287 56.6747 284.287 39.2588C284.287 21.843 270.169 7.72461 252.753 7.72461C235.337 7.72461 221.219 21.843 221.219 39.2588C221.219 56.6747 235.337 70.793 252.753 70.793Z" fill="#6DCCE2"/>
<path d="M264.087 16.8021C267.33 17.9017 268.076 20.5296 268.262 23.5116C268.456 25.8397 268.255 28.1839 267.666 30.4446C267.479 31.1342 267.871 31.2833 268.355 31.4137C269.996 31.8789 271.588 32.5031 273.108 33.2775C274.565 34.0431 275.878 35.0588 276.984 36.2781C277.882 37.1824 278.386 38.405 278.386 39.6794C278.386 40.9537 277.882 42.1764 276.984 43.0807C274.771 45.3297 272.008 46.9615 268.97 47.8145C267.908 48.1686 267.759 48.6159 267.982 49.6782C268.702 52.4742 268.734 55.4031 268.076 58.2141C267.89 59.525 267.204 60.713 266.162 61.5294C265.119 62.3459 263.802 62.7273 262.484 62.5939C259.963 62.1191 257.599 61.0237 255.607 59.4069C255.029 58.9782 254.489 58.475 253.93 58.0091C252.718 57.0027 252.718 57.0027 251.544 58.0091C249.804 59.6103 247.782 60.8742 245.58 61.7365C244.215 62.3527 242.705 62.5785 241.219 62.3888C240.387 62.2579 239.607 61.8972 238.968 61.3473C238.33 60.7975 237.857 60.0803 237.604 59.2765C236.568 56.0664 236.516 52.6199 237.455 49.3801C237.641 48.5228 237.455 48.2804 236.672 48.0009C233.635 47.1669 230.858 45.5767 228.602 43.3789C228.015 42.8613 227.554 42.2173 227.253 41.4955C226.952 40.7736 226.819 39.9928 226.864 39.212C226.909 38.4312 227.131 37.6707 227.512 36.9881C227.894 36.3055 228.426 35.7186 229.068 35.2717C231.257 33.4798 233.796 32.1657 236.523 31.4137C237.399 31.1528 237.753 30.9478 237.492 29.8669C236.831 27.4017 236.66 24.8311 236.989 22.3002C237.417 19.5232 238.498 17.2681 241.592 16.709H242.692C243.185 16.7541 243.669 16.8734 244.127 17.063C247.145 18.0616 249.898 19.7311 252.178 21.946C252.588 22.3002 252.793 22.3188 253.222 21.946C255.721 19.4546 258.822 17.6507 262.224 16.709L264.087 16.8021ZM252.514 47.945C253.818 47.945 255.141 47.945 256.446 47.945C256.701 47.9747 256.958 47.9286 257.187 47.8126C257.416 47.6966 257.605 47.5157 257.732 47.2927C259.111 45.0748 260.472 42.8197 261.664 40.4901C261.802 40.2555 261.875 39.9885 261.875 39.7166C261.875 39.4447 261.802 39.1777 261.664 38.9432C260.453 36.6136 259.111 34.3771 257.713 32.1406C257.587 31.9204 257.401 31.7404 257.177 31.6216C256.952 31.5029 256.699 31.4502 256.446 31.4697H248.674C248.404 31.4572 248.135 31.5225 247.901 31.658C247.666 31.7934 247.475 31.9932 247.351 32.2338C245.953 34.3771 244.686 36.5763 243.493 38.8314C243.337 39.0971 243.255 39.3994 243.255 39.7073C243.255 40.0152 243.337 40.3176 243.493 40.5833C244.685 42.8775 245.991 45.1106 247.407 47.2741C247.522 47.4993 247.704 47.684 247.927 47.8039C248.15 47.9237 248.404 47.9729 248.656 47.945C249.96 47.9263 251.228 47.945 252.514 47.945ZM228.937 39.7259C228.975 40.2304 229.115 40.7219 229.349 41.1705C229.583 41.6191 229.906 42.0154 230.298 42.3352C232.368 44.0541 234.774 45.3235 237.361 46.0626C237.921 46.2304 238.237 46.0626 238.442 45.5222C239.015 43.717 239.7 41.9493 240.492 40.2292C240.58 40.0491 240.625 39.8516 240.625 39.6514C240.625 39.4513 240.58 39.2537 240.492 39.0737C239.716 37.3468 239.032 35.58 238.442 33.7807C238.293 33.3147 238.126 33.1097 237.585 33.2775C234.97 34.0183 232.534 35.2868 230.428 37.0049C229.993 37.3184 229.632 37.7256 229.374 38.1964C229.116 38.6673 228.967 39.1899 228.937 39.7259ZM238.852 54.6357C238.798 55.693 238.924 56.7519 239.225 57.7668C239.933 60.3574 241.592 61.1215 244.127 60.1524C246.455 59.1982 248.603 57.8559 250.482 56.1827C251.134 55.6422 250.948 55.2135 250.482 54.729C249.251 53.3844 248.111 51.9586 247.071 50.461C246.983 50.3269 246.864 50.215 246.725 50.1342C246.586 50.0534 246.43 50.0058 246.27 49.9951C244.345 49.8617 242.433 49.5876 240.548 49.175C240.008 49.0632 239.691 49.175 239.561 49.8274C239.189 51.3947 238.952 52.9908 238.852 54.5985V54.6357ZM266.286 54.2257C266.304 52.7207 266.141 51.2191 265.802 49.7528C265.709 49.2309 265.578 48.8768 264.814 49.0446C263.224 49.4334 261.602 49.6828 259.968 49.7901C259.503 49.7833 259.044 49.9049 258.643 50.1416C258.242 50.3783 257.914 50.7209 257.695 51.1319C257.139 51.9817 256.515 52.7857 255.831 53.5361C255.328 54.1884 254.433 54.8222 254.396 55.4931C254.359 56.164 255.477 56.6672 256.11 57.189C257.803 58.6976 259.817 59.8003 262 60.4133C262.619 60.6626 263.309 60.6708 263.933 60.4362C264.558 60.2015 265.072 59.7411 265.373 59.146C266.17 57.6231 266.488 55.8952 266.286 54.1885V54.2257ZM238.852 24.7416C238.954 26.5001 239.21 28.2463 239.617 29.96C239.71 30.4446 239.859 30.6683 240.492 30.5564C242.17 30.2396 243.847 29.9228 245.543 29.7551C246.028 29.7551 246.643 29.755 247.034 29.2518C248.131 27.6652 249.346 26.1637 250.668 24.7602C251.022 24.3875 251.116 24.0334 250.668 23.642C248.565 21.6044 246.011 20.0912 243.213 19.225C242.818 19.0723 242.393 19.0104 241.971 19.0438C241.548 19.0772 241.138 19.205 240.771 19.4179C240.405 19.6307 240.091 19.9232 239.852 20.2737C239.613 20.6241 239.456 21.0236 239.393 21.4428C239.045 22.4955 238.863 23.5957 238.852 24.7043V24.7416ZM266.305 24.8907C266.235 23.9596 266.117 23.0327 265.951 22.1138C265.261 19.1132 263.919 18.3863 261.031 19.43C258.663 20.3958 256.496 21.7923 254.638 23.5488C254.209 23.9216 254.228 24.1825 254.638 24.6298C255.719 25.8971 256.781 27.2017 257.769 28.5436C257.962 28.8733 258.233 29.1509 258.558 29.3523C258.883 29.5536 259.252 29.6727 259.633 29.6991C261.446 29.8635 263.245 30.15 265.019 30.5564C265.466 30.6496 265.615 30.5564 265.709 30.1091C266.002 28.3692 266.201 26.6148 266.305 24.8535V24.8907ZM276.201 39.8937C276.181 39.3291 276.029 38.7772 275.757 38.282C275.486 37.7868 275.101 37.3621 274.636 37.0422C272.584 35.4074 270.227 34.1974 267.703 33.4825C267.088 33.2775 266.883 33.4825 266.696 34.0043C266.197 35.6697 265.574 37.2956 264.833 38.8686C264.696 39.1236 264.624 39.4086 264.624 39.698C264.624 39.9875 264.696 40.2724 264.833 40.5274C265.624 42.1649 266.309 43.852 266.883 45.5781C267.032 46.044 267.181 46.3049 267.796 46.0999C269.998 45.4305 272.076 44.4043 273.946 43.062C275.027 42.1861 276.164 41.2728 276.201 39.8564V39.8937ZM263.155 42.3165L260.117 47.535C261.577 47.4774 263.027 47.265 264.441 46.9013C264.814 46.9013 264.926 46.6963 264.777 46.3049C264.331 44.9346 263.808 43.5906 263.211 42.2792L263.155 42.3165ZM249.587 50.256C250.405 51.4725 251.321 52.6195 252.327 53.6853C252.495 53.8903 252.663 53.8903 252.849 53.6853C253.849 52.6405 254.742 51.4979 255.514 50.2746L249.587 50.256ZM245.021 47.74L241.946 42.447C241.3 43.7048 240.776 45.0216 240.381 46.3794C240.213 46.864 240.53 47.0318 240.94 47.1063L245.021 47.74ZM263.155 37.21C263.528 36.2781 263.845 35.5885 264.087 34.8803C265.019 32.2338 265.094 32.7929 262.671 32.271C261.877 31.9524 261.003 31.8937 260.173 32.1033L263.155 37.21ZM255.44 29.2146C254.782 28.2569 254.073 27.336 253.315 26.4562C252.793 25.6921 252.29 25.6362 251.787 26.4562C251.6 26.7544 251.265 26.9594 251.06 27.2576C250.613 27.9286 249.886 28.3945 249.662 29.2891H255.104C255.24 29.2753 255.373 29.2374 255.495 29.1772L255.44 29.2146ZM244.798 31.9728C243.445 32.0596 242.104 32.2718 240.791 32.6066C240.53 32.6066 240.25 32.737 240.362 33.0911C240.744 34.4742 241.275 35.8116 241.946 37.0795L244.723 32.3456C244.787 32.2163 244.831 32.078 244.854 31.9356L244.798 31.9728Z" fill="white"/>
<path d="M248.041 39.6857C248.001 40.3037 248.088 40.9232 248.297 41.506C248.507 42.0888 248.833 42.6225 249.257 43.0742C249.68 43.5258 250.192 43.8858 250.76 44.1319C251.328 44.378 251.941 44.505 252.56 44.505C253.179 44.505 253.792 44.378 254.36 44.1319C254.928 43.8858 255.44 43.5258 255.864 43.0742C256.287 42.6225 256.614 42.0888 256.823 41.506C257.032 40.9232 257.119 40.3037 257.08 39.6857C257.006 38.5373 256.498 37.4599 255.658 36.6727C254.819 35.8854 253.711 35.4473 252.56 35.4473C251.409 35.4473 250.302 35.8854 249.462 36.6727C248.623 37.4599 248.114 38.5373 248.041 39.6857Z" fill="white"/>
<path d="M248.041 39.6887C248.041 38.7954 248.305 37.922 248.801 37.1785C249.296 36.435 250 35.8546 250.824 35.5102C251.648 35.1658 252.556 35.0729 253.433 35.2432C254.31 35.4134 255.117 35.8392 255.753 36.467C256.388 37.0948 256.824 37.8966 257.005 38.7714C257.186 39.6462 257.104 40.555 256.77 41.3834C256.436 42.2119 255.864 42.923 255.127 43.4273C254.389 43.9316 253.519 44.2065 252.626 44.2175C252.022 44.2434 251.419 44.1445 250.854 43.9268C250.29 43.7091 249.777 43.3773 249.346 42.9523C248.916 42.5273 248.578 42.0181 248.354 41.4566C248.129 40.895 248.023 40.2932 248.041 39.6887Z" fill="white"/>
<path d="M39.878 70.8107C57.2938 70.8107 71.4122 56.6923 71.4122 39.2764C71.4122 21.8606 57.2938 7.74219 39.878 7.74219C22.4621 7.74219 8.34375 21.8606 8.34375 39.2764C8.34375 56.6923 22.4621 70.8107 39.878 70.8107Z" fill="#6DCCE2"/>
<path d="M21.4492 20.7891H58.3137C58.1273 22.8764 57.9596 24.8893 57.7732 26.9021C57.1768 33.4065 56.5618 39.9482 55.9095 46.378C55.5989 49.8321 55.2882 53.28 54.9776 56.7217C54.9907 56.9753 54.9109 57.225 54.7531 57.424C54.5952 57.623 54.3703 57.7576 54.1203 57.8027C51.0452 58.6041 47.8955 59.2377 44.9135 60.3187C41.6091 61.5582 37.9674 61.5582 34.663 60.3187C31.6997 59.2564 28.6059 58.6227 25.5494 57.8213C25.2664 57.7712 25.0121 57.6174 24.8364 57.39C24.6606 57.1625 24.576 56.8778 24.5989 56.5913C23.8348 48.1113 23.0334 39.6314 22.2506 31.1514C21.9897 27.7408 21.7474 24.3674 21.4492 20.7891ZM29.5564 44.1602C29.7428 46.2476 29.9664 48.279 30.0596 50.2919C30.026 50.6085 30.1128 50.9261 30.3027 51.1817C30.4926 51.4372 30.7718 51.6119 31.0846 51.671C33.0788 52.2115 35.0917 52.7147 37.0486 53.3297C38.7961 53.954 40.7059 53.954 42.4534 53.3297C44.4848 52.5842 46.6282 52.1556 48.7155 51.6151C49.015 51.5563 49.2819 51.3884 49.4644 51.1439C49.647 50.8993 49.7321 50.5957 49.7033 50.2919C49.7033 49.3414 49.7033 48.4281 49.8524 47.4404C50.1506 44.4025 50.4488 41.3646 50.7656 38.3267C50.8775 37.4135 50.6165 37.0221 49.6287 37.0781C48.641 37.134 47.1127 37.0781 45.9013 37.0781H34.7189C34.3835 37.0781 33.8057 36.7799 33.7498 36.5562C33.5448 35.3262 33.4703 34.0774 33.3398 32.7355H39.9933C43.4598 32.7355 46.9263 32.7355 50.3742 32.7355C50.691 32.7355 51.2129 32.4746 51.2502 32.2883C51.4365 30.8532 51.5297 29.4182 51.6602 28.0017C51.5015 27.9482 51.3397 27.9046 51.1757 27.8713H28.811C28.2146 27.8713 28.0468 28.1322 28.1027 28.6913C28.2518 30.0145 28.3636 31.3191 28.4754 32.6424C28.7736 35.6803 29.0719 38.7181 29.37 41.961H45.454C45.3235 43.4893 45.1185 44.7939 45.1185 46.0985C45.1185 47.4031 44.5408 47.8504 43.348 47.9622C41.4843 48.279 39.7696 49.2855 37.7568 48.3909C37.0651 48.1028 36.3381 47.9084 35.5949 47.8131C35.4521 47.8137 35.3107 47.7844 35.1799 47.7272C35.049 47.6699 34.9315 47.586 34.835 47.4807C34.7385 47.3754 34.6651 47.2512 34.6194 47.1158C34.5737 46.9805 34.5569 46.8371 34.5699 46.6949C34.5699 45.7817 34.4208 44.8311 34.3276 43.9738L29.5564 44.1602Z" fill="white"/>
<path d="M48.752 4.18464C41.8391 2.36966 34.5432 2.64526 27.787 4.9767C21.0307 7.30814 15.1175 11.5907 10.7951 17.2827C6.47269 22.9747 3.9352 29.8207 3.5035 36.9549C3.0718 44.089 4.76527 51.191 8.36978 57.3627C11.9743 63.5345 17.3279 68.4987 23.7538 71.6278C30.1796 74.757 37.389 75.9103 44.4703 74.9421C51.5517 73.974 58.1869 70.9278 63.537 66.1886C68.8871 61.4495 72.7117 55.2304 74.5273 48.3176" stroke="#6DCCE2" stroke-width="5" stroke-miterlimit="10" stroke-linecap="round"/>
<path d="M72.8276 25.4311C75.8188 32.6238 76.4171 40.5879 74.5343 48.1468C72.6514 55.7058 68.3873 62.4587 62.3716 67.4079C56.356 72.3572 48.9081 75.2403 41.128 75.6313C33.3479 76.0224 25.6484 73.9007 19.1668 69.5796C12.6852 65.2586 7.76529 58.9673 5.13395 51.6353C2.5026 44.3033 2.29937 36.3193 4.55421 28.8629C6.80904 21.4065 11.4024 14.8731 17.6557 10.2278C23.909 5.58248 31.4906 3.07174 39.2805 3.06641" stroke="#6DCCE2" stroke-width="5" stroke-miterlimit="10" stroke-linecap="round"/>
<path d="M145.573 162.473C162.989 162.473 177.108 148.354 177.108 130.939C177.108 113.523 162.989 99.4043 145.573 99.4043C128.157 99.4043 114.039 113.523 114.039 130.939C114.039 148.354 128.157 162.473 145.573 162.473Z" fill="#6DCCE2"/>
<path d="M136.491 135.228C136.401 135.312 136.32 135.406 136.249 135.508C136.249 135.638 136.119 135.787 136.044 135.918C135.97 136.048 135.858 136.123 135.783 136.234C135.719 136.335 135.644 136.429 135.56 136.514C135.392 136.644 135.373 136.905 135.131 137.036C134.889 137.166 135.019 137.204 134.944 137.278L134.684 137.483L134.479 137.651C134.312 137.861 134.102 138.032 133.864 138.154C133.791 138.231 133.722 138.312 133.659 138.396C133.435 138.396 133.323 138.545 133.193 138.676C133.043 138.676 132.838 138.769 132.727 138.881C132.615 138.993 132.41 138.881 132.317 139.049C132.223 139.216 131.963 139.049 131.832 139.198C131.702 139.347 131.348 139.198 131.18 139.365C131.012 139.533 130.565 139.365 130.285 139.496C130.173 139.682 129.987 139.608 129.838 139.626C129.339 139.627 128.84 139.664 128.347 139.738C127.827 139.794 127.302 139.794 126.781 139.738C125.98 139.738 125.197 139.738 124.414 139.738H124.079C124.089 139.893 124.089 140.049 124.079 140.204C124.079 140.316 124.079 140.465 123.967 140.54C123.855 140.614 123.967 140.651 123.967 140.707C123.967 140.763 123.967 141.155 123.855 141.36C123.744 141.565 123.855 141.639 123.855 141.77C123.855 141.9 123.855 142.031 123.725 142.105C123.594 142.18 123.725 142.217 123.725 142.273V142.664C123.725 142.664 123.725 142.813 123.725 142.832C123.725 142.851 123.613 143.112 123.594 143.261C123.576 143.41 123.594 143.559 123.483 143.708C123.371 143.857 123.483 143.988 123.483 144.137C123.483 144.286 123.483 144.416 123.352 144.491C123.222 144.565 123.352 144.584 123.352 144.64C123.361 144.789 123.361 144.938 123.352 145.087V145.199C123.352 145.199 123.24 145.367 123.24 145.479V145.683H118.469C118.422 145.418 118.422 145.147 118.469 144.882C118.6 144.64 118.469 144.36 118.618 144.155C118.767 143.95 118.618 143.596 118.786 143.372C118.954 143.149 118.786 142.795 118.935 142.552C119.084 142.31 118.935 142.012 119.103 141.826C119.271 141.639 119.103 141.211 119.252 140.968C119.401 140.726 119.252 140.391 119.42 140.167C119.587 139.943 119.42 139.626 119.569 139.421C119.718 139.216 119.569 138.844 119.736 138.601C119.904 138.359 119.737 138.061 119.886 137.856C120.035 137.651 119.886 137.241 120.053 136.999C120.15 136.756 120.194 136.495 120.184 136.234C120.184 136.234 120.184 135.862 120.314 135.675C120.445 135.489 120.314 135.433 120.426 135.358C120.538 135.284 120.426 135.191 120.426 135.098C120.426 135.004 120.426 134.706 120.575 134.557C120.724 134.408 120.575 134.445 120.575 134.389C120.575 134.333 120.575 133.942 120.706 133.737C120.836 133.532 120.706 133.551 120.706 133.457C120.706 133.364 120.706 133.103 120.836 132.954C120.967 132.805 120.836 132.787 120.836 132.693C120.836 132.6 120.836 132.302 120.985 132.19C121.134 132.078 120.985 132.19 120.985 132.078C120.976 131.929 120.976 131.78 120.985 131.631C120.985 131.631 120.985 131.501 120.985 131.426C120.994 131.377 120.994 131.326 120.985 131.277C120.985 131.128 120.985 130.979 120.985 130.83C121.013 130.766 121.044 130.703 121.078 130.643V130.494C121.069 130.351 121.069 130.208 121.078 130.065C121.108 129.987 121.146 129.912 121.19 129.842C121.201 129.793 121.201 129.742 121.19 129.693C121.162 129.52 121.162 129.344 121.19 129.171C121.266 128.962 121.304 128.741 121.302 128.519C121.302 128.425 121.395 128.351 121.414 128.258C121.432 128.178 121.432 128.095 121.414 128.015C121.414 127.829 121.414 127.624 121.563 127.438C121.712 127.251 121.563 127.158 121.563 126.99C121.563 126.823 121.563 126.748 121.675 126.674C121.787 126.599 121.675 126.674 121.675 126.543C121.666 126.4 121.666 126.257 121.675 126.114C121.675 126.021 121.675 125.928 121.768 125.891C121.861 125.853 121.768 125.891 121.768 125.76C121.768 125.63 121.768 125.499 121.768 125.369C121.797 125.279 121.835 125.191 121.88 125.108C121.88 125.108 121.88 125.108 121.88 124.996C121.852 124.855 121.852 124.709 121.88 124.568C121.973 124.265 122.03 123.952 122.048 123.636C122.09 123.491 122.152 123.353 122.234 123.226H132.074C132.125 123.219 132.177 123.224 132.225 123.24C132.273 123.256 132.318 123.283 132.354 123.319C132.354 123.319 132.578 123.319 132.689 123.319C132.801 123.319 133.025 123.319 133.118 123.449C133.211 123.58 133.249 123.449 133.323 123.449C133.398 123.449 133.547 123.449 133.584 123.58H133.696C133.826 123.58 133.957 123.58 134.031 123.729H134.18H134.329H134.423C134.609 123.729 134.702 123.878 134.833 124.008C134.906 124.027 134.983 124.027 135.056 124.008L135.373 124.325C135.373 124.325 135.522 124.512 135.615 124.568C135.709 124.623 135.746 124.754 135.876 124.828C136.007 124.903 136.1 125.089 136.193 125.22C136.286 125.35 136.398 125.593 136.529 125.76C136.635 125.894 136.7 126.056 136.715 126.226C136.715 126.394 136.864 126.562 136.939 126.729C137.013 126.897 136.939 126.729 136.939 126.841C137.031 127.17 137.087 127.507 137.106 127.848C137.106 128.686 137.106 129.506 137.106 130.326C137.084 130.453 137.053 130.577 137.013 130.699C137.013 130.83 137.013 130.979 137.013 131.128C137.02 131.261 136.981 131.393 136.901 131.501C136.901 131.501 136.901 131.761 136.901 131.892C136.901 132.022 136.901 132.171 136.771 132.246C136.641 132.321 136.771 132.339 136.771 132.395C136.771 132.451 136.771 132.675 136.64 132.731C136.629 132.78 136.629 132.831 136.64 132.88C136.64 132.992 136.64 133.141 136.51 133.178L136.342 133.756C136.312 133.822 136.274 133.884 136.23 133.942C136.23 133.942 136.23 133.942 136.23 134.035C136.23 134.128 136.23 134.259 136.1 134.277C135.97 134.296 136.1 134.277 136.1 134.371C136.1 134.464 136.1 134.557 135.97 134.594C135.839 134.632 136.51 135.153 136.491 135.228ZM124.657 136.178C124.85 136.253 125.05 136.309 125.253 136.346C125.593 136.393 125.938 136.393 126.278 136.346C127.095 136.34 127.911 136.278 128.72 136.16C128.924 136.132 129.131 136.132 129.335 136.16C129.335 136.16 129.484 136.16 129.502 136.16C129.521 136.16 129.745 136.048 129.875 136.029C130.006 136.011 130.099 136.029 130.136 136.029C130.17 136.001 130.213 135.985 130.257 135.985C130.302 135.985 130.345 136.001 130.378 136.029C130.621 136.029 130.751 135.787 130.975 135.843C131.198 135.899 130.975 135.843 130.975 135.843H131.087L131.459 135.619L131.608 135.47C131.705 135.386 131.792 135.293 131.869 135.191C131.95 135.096 132.024 134.996 132.093 134.893C132.113 134.837 132.145 134.786 132.186 134.743L132.447 134.296L132.559 134.11V133.961C132.559 133.961 132.671 133.774 132.689 133.662C132.708 133.551 132.689 133.513 132.689 133.513C132.689 133.513 132.801 133.29 132.838 133.159C132.876 133.029 132.838 133.029 132.838 133.029C132.838 133.029 132.95 132.805 132.969 132.693C132.988 132.581 132.969 132.432 132.969 132.395C132.969 132.358 133.062 132.153 133.081 132.041C133.099 131.929 133.081 131.836 133.081 131.743C133.135 131.629 133.179 131.511 133.211 131.389C133.211 131.109 133.211 130.811 133.211 130.513C133.195 130.458 133.195 130.4 133.211 130.345C133.211 130.345 133.211 130.215 133.211 130.14C133.211 130.065 133.211 129.73 133.211 129.544C133.211 129.357 133.211 129.413 133.211 129.413C133.211 129.413 133.099 129.152 133.081 129.022C133.062 128.891 133.081 128.798 133.081 128.761C133.081 128.724 132.932 128.425 132.82 128.276C132.742 128.158 132.648 128.052 132.54 127.959C132.428 127.959 132.261 127.866 132.186 127.773C132.112 127.68 131.888 127.643 131.72 127.624H131.608C131.478 127.419 131.273 127.531 131.105 127.494L130.882 127.4H130.788C130.192 127.4 129.614 127.4 129.018 127.251C128.192 127.205 127.365 127.205 126.539 127.251H126.371C126.371 127.382 126.371 127.549 126.371 127.643C126.371 127.736 126.371 128.034 126.241 128.22C126.11 128.407 126.241 128.425 126.241 128.463C126.241 128.5 126.129 128.686 126.129 128.817C126.129 128.947 126.129 128.985 126.129 129.059C126.074 129.173 126.031 129.291 125.999 129.413C125.999 129.674 125.999 129.935 125.85 130.196C125.7 130.457 125.85 130.736 125.7 131.016C125.551 131.296 125.7 131.519 125.551 131.78C125.402 132.041 125.551 132.321 125.384 132.6C125.216 132.88 125.384 132.917 125.384 133.085C125.392 133.128 125.392 133.172 125.384 133.215C125.339 133.286 125.301 133.361 125.272 133.439C125.272 133.588 125.272 133.737 125.272 133.867C125.28 133.917 125.28 133.967 125.272 134.017C125.227 134.087 125.19 134.162 125.16 134.24C125.151 134.383 125.151 134.526 125.16 134.669V134.781C125.16 134.781 125.067 134.948 125.048 135.06C125.029 135.172 125.141 135.508 124.918 135.675C124.694 135.843 124.918 135.675 124.918 135.824C124.908 135.961 124.908 136.098 124.918 136.234C124.926 136.277 124.926 136.322 124.918 136.365L124.657 136.178Z" fill="white"/>
<path d="M160.348 123.278H170.058C170.244 123.278 170.449 123.278 170.617 123.409C170.785 123.539 170.915 123.409 171.064 123.409H171.232C171.287 123.425 171.345 123.425 171.4 123.409C171.53 123.409 171.679 123.409 171.754 123.539H171.866C171.977 123.539 172.145 123.539 172.201 123.67C172.257 123.8 172.294 123.67 172.332 123.67L172.481 123.781C172.779 123.781 172.891 124.136 173.189 124.136C173.487 124.136 173.301 124.229 173.357 124.266C173.413 124.303 173.599 124.564 173.729 124.695C173.874 124.809 174.011 124.934 174.139 125.067C174.218 125.172 174.287 125.285 174.344 125.403C174.413 125.507 174.488 125.606 174.568 125.701C174.568 125.701 174.699 126.037 174.754 126.204V126.316L174.866 126.521C174.866 126.521 174.866 126.763 174.997 126.801C174.99 126.85 174.99 126.9 174.997 126.95C174.997 127.118 174.903 127.323 175.127 127.434C175.351 127.546 175.127 127.434 175.127 127.583C175.127 127.956 175.127 128.348 175.127 128.739C175.11 128.838 175.11 128.939 175.127 129.037C175.108 129.167 175.108 129.299 175.127 129.429C175.127 129.839 175.127 130.23 175.127 130.64C175.127 130.733 175.127 130.845 175.015 130.882C174.903 130.92 175.015 130.882 175.015 131.013C175.006 131.174 175.006 131.336 175.015 131.497C175.015 131.497 175.015 131.59 174.922 131.646V131.758C174.941 131.882 174.941 132.007 174.922 132.131C174.893 132.239 174.856 132.345 174.81 132.448C174.81 132.541 174.717 132.634 174.68 132.746C174.643 132.858 174.549 133.175 174.475 133.38L174.363 133.603C174.355 133.64 174.355 133.678 174.363 133.715C174.363 133.808 174.363 133.939 174.233 133.957C174.102 133.976 174.233 133.957 174.233 134.069C174.233 134.181 174.233 134.256 174.102 134.256C173.972 134.256 174.102 134.256 174.102 134.256C174.1 134.309 174.088 134.361 174.066 134.409C174.043 134.457 174.011 134.5 173.972 134.535C173.86 134.535 173.841 134.815 173.767 134.945C173.692 135.076 173.655 135.206 173.543 135.262C173.431 135.318 173.543 135.355 173.431 135.411C173.367 135.53 173.293 135.642 173.207 135.747C173.129 135.811 173.06 135.887 173.003 135.97C172.934 136.132 172.825 136.274 172.686 136.38C172.537 136.511 172.462 136.697 172.332 136.828C172.201 136.958 172.033 137.051 171.903 137.163C171.772 137.275 171.661 137.405 171.53 137.536C171.357 137.584 171.21 137.698 171.12 137.853C171.036 137.869 170.957 137.903 170.887 137.951C170.816 137.999 170.756 138.06 170.71 138.132L170.226 138.337H170.114H170.021C169.871 138.337 169.704 138.337 169.611 138.486C169.517 138.635 169.499 138.486 169.461 138.486L169.182 138.598H169.051C168.902 138.598 168.716 138.598 168.641 138.598C168.567 138.598 168.026 138.598 167.71 138.747C167.598 138.952 167.393 138.859 167.244 138.878C166.847 138.849 166.448 138.849 166.051 138.878C164.663 139.008 163.269 139.045 161.876 138.989C161.578 138.989 161.522 138.989 161.503 139.325C161.513 139.449 161.513 139.574 161.503 139.698C161.474 139.776 161.436 139.851 161.391 139.921C161.385 139.971 161.385 140.021 161.391 140.07C161.382 140.194 161.382 140.319 161.391 140.443C161.391 140.443 161.391 140.443 161.391 140.536C161.391 140.63 161.298 141.021 161.242 141.263C161.213 141.353 161.176 141.441 161.131 141.524C161.131 141.524 161.131 141.524 161.131 141.636C161.159 141.777 161.159 141.923 161.131 142.065C161.019 142.326 161.131 142.642 160.963 142.885C160.884 143.119 160.84 143.364 160.832 143.612C160.803 143.702 160.766 143.789 160.721 143.872C160.71 143.922 160.71 143.972 160.721 144.022C160.721 144.152 160.721 144.282 160.721 144.413C160.691 144.503 160.654 144.59 160.609 144.674C160.609 144.767 160.609 144.86 160.609 144.991H156.564C156.415 144.991 156.359 144.991 156.378 144.804C156.369 144.668 156.369 144.531 156.378 144.394C156.408 144.322 156.446 144.254 156.49 144.189C156.5 144.128 156.5 144.065 156.49 144.003C156.49 143.872 156.49 143.723 156.49 143.593C156.52 143.527 156.558 143.464 156.602 143.406C156.61 143.37 156.61 143.332 156.602 143.295C156.592 143.152 156.592 143.009 156.602 142.866C156.602 142.773 156.602 142.642 156.714 142.605C156.825 142.568 156.714 142.605 156.714 142.493C156.704 142.363 156.704 142.232 156.714 142.102C156.714 141.99 156.714 141.86 156.825 141.804C156.937 141.748 156.825 141.711 156.825 141.673C156.825 141.636 156.825 141.394 156.825 141.245C156.859 141.168 156.896 141.094 156.937 141.021C156.946 140.965 156.946 140.909 156.937 140.853C156.937 140.704 156.937 140.518 156.937 140.387C156.937 140.257 156.937 139.847 157.086 139.623C157.235 139.399 157.086 139.008 157.273 138.766C157.362 138.554 157.401 138.324 157.384 138.095C157.384 138.002 157.384 137.89 157.496 137.871C157.507 137.828 157.507 137.784 157.496 137.741C157.487 137.604 157.487 137.467 157.496 137.331C157.496 137.238 157.496 137.126 157.589 137.07C157.683 137.014 157.589 137.07 157.589 136.939C157.589 136.809 157.589 136.66 157.589 136.529C157.589 136.399 157.59 136.362 157.683 136.287C157.688 136.237 157.688 136.188 157.683 136.138C157.683 135.896 157.683 135.653 157.813 135.448C157.944 135.243 157.813 135.243 157.813 135.132C157.813 135.02 157.813 134.833 157.944 134.684C158.074 134.535 157.944 134.479 157.944 134.367C157.944 134.256 157.944 134.013 158.093 133.901C158.242 133.79 158.093 133.696 158.093 133.603C158.093 133.51 158.093 133.249 158.223 133.1C158.354 132.951 158.223 132.858 158.223 132.727C158.223 132.597 158.223 132.429 158.354 132.317C158.484 132.206 158.354 132.15 158.354 132.075C158.354 132.001 158.354 131.665 158.484 131.497C158.615 131.33 158.484 131.348 158.484 131.274C158.464 131.08 158.503 130.885 158.596 130.715C158.596 130.715 158.596 130.491 158.596 130.379C158.596 130.267 158.596 130.081 158.708 129.95C158.82 129.82 158.708 129.708 158.708 129.596C158.708 129.484 158.708 129.279 158.838 129.149C158.969 129.019 158.838 128.907 158.838 128.776C158.838 128.646 158.838 128.497 158.95 128.366C159.062 128.236 158.95 128.143 158.95 128.012C158.95 127.882 158.95 127.714 159.062 127.565C159.174 127.416 159.062 127.267 159.062 127.118C159.062 126.968 159.062 126.875 159.192 126.801C159.204 126.752 159.204 126.701 159.192 126.652C159.192 126.428 159.192 126.167 159.323 125.962C159.453 125.757 159.323 125.794 159.323 125.72C159.323 125.645 159.323 125.366 159.435 125.198C159.546 125.03 159.435 124.937 159.435 124.788C159.435 124.639 159.435 124.508 159.565 124.434C159.577 124.385 159.577 124.334 159.565 124.285C159.565 124.154 159.565 124.024 159.565 123.893C159.565 123.763 159.565 123.688 159.658 123.67C159.669 123.627 159.669 123.582 159.658 123.539C159.658 123.409 159.658 123.278 159.658 123.148C159.65 123.094 159.654 123.04 159.67 122.988C159.686 122.936 159.714 122.889 159.751 122.85C159.751 122.85 160.329 123.446 160.348 123.278ZM163.963 126.801C163.973 126.95 163.973 127.099 163.963 127.248C163.974 127.291 163.974 127.336 163.963 127.378C163.963 127.378 163.963 127.509 163.87 127.583C163.777 127.658 163.87 127.9 163.87 128.049V128.161C163.665 128.161 163.758 128.404 163.74 128.534C163.721 128.664 163.74 128.869 163.74 128.925C163.74 128.981 163.628 129.261 163.609 129.41C163.591 129.559 163.609 129.652 163.609 129.708C163.609 129.764 163.516 129.988 163.498 130.118C163.479 130.249 163.498 130.416 163.498 130.491C163.498 130.565 163.386 130.882 163.367 131.069C163.348 131.255 163.367 131.274 163.367 131.292C163.367 131.311 163.367 131.479 163.255 131.59V132.001C163.263 132.044 163.263 132.088 163.255 132.131C163.207 132.186 163.169 132.249 163.143 132.317C163.143 132.466 163.143 132.634 163.143 132.783C163.143 132.932 163.143 132.783 163.143 132.895C163.099 132.966 163.061 133.041 163.032 133.119C163.032 133.249 163.032 133.398 163.032 133.547C163.032 133.696 163.032 133.678 163.032 133.678C163.032 133.678 163.032 133.846 163.032 133.939C163.032 134.032 163.032 134.33 163.032 134.442C162.951 134.577 162.912 134.732 162.92 134.889C162.928 134.976 162.928 135.063 162.92 135.15C162.928 135.187 162.928 135.225 162.92 135.262C162.875 135.345 162.837 135.433 162.808 135.523C162.808 135.747 162.808 135.989 162.659 136.157C162.948 136.336 163.293 136.402 163.628 136.343L164.467 136.25H166.237C166.237 136.25 166.368 136.25 166.386 136.25C166.405 136.25 166.852 136.138 167.076 136.119C167.299 136.101 167.299 136.119 167.337 136.119C167.374 136.119 167.728 136.008 167.915 135.97C168.005 135.941 168.092 135.904 168.175 135.858H168.287C168.436 135.858 168.604 135.858 168.697 135.728H168.94C168.94 135.504 169.238 135.635 169.312 135.43C169.387 135.225 169.592 135.187 169.722 135.076L169.909 134.889L170.114 134.591C170.205 134.481 170.286 134.362 170.356 134.237C170.378 134.126 170.43 134.023 170.505 133.939C170.617 133.846 170.636 133.622 170.691 133.454C170.793 133.25 170.856 133.029 170.878 132.802C171.027 132.802 170.99 132.671 170.99 132.578C170.981 132.473 170.981 132.367 170.99 132.261C170.982 132.225 170.982 132.186 170.99 132.15C170.995 132.1 170.995 132.05 170.99 132.001C170.99 131.814 170.99 131.609 171.139 131.46C171.136 131.028 171.18 130.597 171.269 130.174C171.456 129.671 171.176 129.149 171.139 128.627C170.897 128.627 171.139 128.273 170.859 128.217C170.58 128.161 170.859 128.012 170.691 127.938C170.524 127.863 170.468 127.677 170.263 127.658C170.263 127.472 170.076 127.565 169.983 127.528H169.666L169.48 127.434H169.126H169.014H168.865C168.19 127.372 167.532 127.182 166.927 126.875H164.038L163.963 126.801Z" fill="white"/>
<path d="M153.529 139.921H149.541C149.541 139.921 149.429 139.921 149.391 139.921C149.354 139.921 149.205 139.921 149.186 139.921C149.168 139.921 149.093 139.734 149.186 139.66C149.28 139.585 149.186 139.529 149.186 139.455C149.186 139.38 149.186 139.119 149.186 139.026C149.186 138.933 149.186 138.43 149.354 138.206C149.522 137.982 149.447 137.684 149.503 137.423C149.559 137.162 149.503 137.274 149.615 137.2C149.633 137.088 149.633 136.975 149.615 136.864C149.615 136.734 149.615 136.603 149.727 136.491C149.839 136.379 149.727 136.268 149.727 136.156C149.727 136.044 149.727 135.82 149.857 135.709C149.988 135.597 149.857 135.597 149.857 135.541C149.857 135.485 149.857 135.093 149.988 134.888C150.118 134.683 149.988 134.684 149.988 134.572C149.981 134.406 150.027 134.243 150.118 134.106C150.118 134.013 150.118 133.808 150.118 133.658C150.118 133.509 150.118 133.398 150.249 133.36C150.379 133.323 150.249 133.36 150.249 133.23C150.249 133.099 150.249 132.932 150.249 132.783C150.245 132.714 150.245 132.646 150.249 132.577V132.428C150.239 132.286 150.239 132.142 150.249 132C150.249 132 150.249 131.869 150.342 131.795V131.683V131.254C150.342 131.254 150.342 131.049 150.454 130.993C150.566 130.937 150.454 130.863 150.454 130.788C150.452 130.576 150.496 130.366 150.584 130.173C150.584 130.08 150.584 129.875 150.584 129.726C150.606 129.563 150.637 129.401 150.677 129.241C150.736 129.123 150.767 128.992 150.767 128.859C150.767 128.727 150.736 128.596 150.677 128.477C150.649 128.367 150.649 128.252 150.677 128.142C150.673 128.052 150.647 127.964 150.602 127.886C150.556 127.808 150.493 127.743 150.416 127.695C150.321 127.596 150.234 127.49 150.156 127.378C150.156 127.378 149.932 127.378 149.895 127.247C149.657 127.174 149.414 127.118 149.168 127.079L146.428 126.874C146.148 126.874 145.888 126.874 145.608 126.874C145.562 126.872 145.517 126.879 145.474 126.894C145.431 126.91 145.392 126.934 145.359 126.966C145.326 126.997 145.299 127.035 145.281 127.077C145.263 127.119 145.254 127.164 145.254 127.21C145.263 127.309 145.263 127.409 145.254 127.508V127.601C145.049 127.601 145.123 127.862 145.105 128.011C145.086 128.16 145.105 128.328 144.993 128.477C144.881 128.626 144.993 128.776 144.993 128.925C144.993 129.074 144.993 129.185 144.881 129.241C144.769 129.297 144.881 129.241 144.881 129.353C144.891 129.508 144.891 129.664 144.881 129.819C144.865 129.888 144.833 129.952 144.788 130.006C144.777 130.048 144.777 130.093 144.788 130.136C144.797 130.266 144.797 130.397 144.788 130.527C144.788 130.621 144.788 130.714 144.695 130.826C144.686 130.9 144.686 130.975 144.695 131.049C144.695 131.254 144.695 131.459 144.564 131.664C144.434 131.869 144.564 131.925 144.564 132.056C144.564 132.186 144.564 132.335 144.434 132.428C144.303 132.522 144.434 132.522 144.434 132.559C144.425 132.708 144.425 132.857 144.434 133.006V133.099C144.434 133.099 144.322 133.509 144.285 133.714C144.248 133.919 144.285 133.919 144.173 133.975C144.061 134.031 144.173 134.068 144.173 134.106V134.497C144.173 134.59 144.173 134.702 144.061 134.758C144.048 134.813 144.048 134.871 144.061 134.926C144.061 135.075 144.061 135.243 144.061 135.373C144.061 135.504 144.061 135.969 143.912 136.212C143.809 136.466 143.758 136.739 143.763 137.013C143.763 137.013 143.651 137.386 143.632 137.572C143.614 137.759 143.632 137.815 143.521 137.889C143.409 137.964 143.521 137.982 143.521 138.02C143.53 138.169 143.53 138.318 143.521 138.467C143.521 138.467 143.521 138.56 143.521 138.579C143.521 138.597 143.409 138.989 143.372 139.194C143.334 139.399 143.372 139.361 143.278 139.455C143.185 139.548 143.278 139.716 143.278 139.865H138.414V139.343C138.414 139.343 138.507 138.989 138.544 138.802C138.582 138.616 138.544 138.541 138.675 138.486C138.686 138.424 138.686 138.361 138.675 138.299C138.675 138.075 138.675 137.852 138.805 137.647C138.936 137.442 138.805 137.423 138.805 137.311C138.805 137.2 138.805 137.013 138.917 136.883C139.029 136.752 138.917 136.696 138.917 136.603C138.917 136.51 138.824 136.212 139.048 136.081C139.271 135.951 139.048 136.081 139.048 135.932C139.048 135.783 139.048 135.653 139.048 135.504C139.048 135.354 139.048 135.504 139.048 135.392C139.048 135.28 139.16 135.019 139.197 134.833C139.234 134.646 139.197 134.59 139.309 134.534C139.42 134.478 139.309 134.534 139.309 134.423C139.309 134.311 139.309 134.106 139.309 133.957V133.77V133.64C139.28 133.492 139.28 133.34 139.309 133.193C139.439 132.894 139.309 132.559 139.495 132.298C139.573 132.05 139.617 131.793 139.625 131.534C139.625 131.534 139.737 131.198 139.756 131.031C139.775 130.863 139.756 130.751 139.886 130.639C140.017 130.527 139.886 130.416 139.886 130.304C139.886 130.192 139.886 129.987 140.017 129.856C140.147 129.726 140.017 129.651 140.017 129.54C140.017 129.428 140.017 129.204 140.129 129.092C140.24 128.981 140.129 128.943 140.129 128.869C140.129 128.794 140.129 128.459 140.259 128.272C140.39 128.086 140.259 128.011 140.259 127.881C140.259 127.75 140.259 127.601 140.39 127.489C140.52 127.378 140.39 127.247 140.39 127.117C140.39 126.986 140.39 126.819 140.52 126.725C140.65 126.632 140.52 126.725 140.52 126.614C140.511 126.458 140.511 126.303 140.52 126.148C140.55 126.076 140.588 126.007 140.632 125.943C140.64 125.906 140.64 125.868 140.632 125.831V125.421C140.632 125.328 140.632 125.197 140.744 125.16C140.757 125.117 140.757 125.072 140.744 125.029C140.734 124.88 140.734 124.731 140.744 124.582C140.744 124.582 140.744 124.452 140.837 124.377C140.847 124.341 140.847 124.302 140.837 124.265C140.837 124.265 140.837 124.06 140.837 123.967C140.837 123.874 140.837 123.669 140.949 123.557C141.061 123.445 140.949 123.427 140.949 123.352C140.949 123.277 140.949 122.942 141.079 122.737C141.21 122.532 141.079 122.476 141.079 122.346C141.079 122.215 141.079 122.066 141.21 122.01C141.34 121.954 141.21 122.01 141.21 121.898C141.21 121.787 141.21 121.6 141.21 121.47C141.21 121.339 141.21 121.246 141.321 121.19C141.433 121.134 141.321 121.097 141.321 121.06C141.312 120.917 141.312 120.774 141.321 120.631C141.318 120.569 141.318 120.507 141.321 120.445V120.314V119.886C141.321 119.886 141.321 119.681 141.433 119.643C141.545 119.606 141.433 119.55 141.433 119.513C141.413 119.346 141.413 119.177 141.433 119.01C141.529 118.766 141.58 118.507 141.582 118.245C141.582 118.245 141.582 118.134 141.676 118.059V117.686C141.676 117.388 141.769 117.295 142.067 117.295H145.943C146.055 117.295 146.149 117.481 146.037 117.556C145.925 117.63 145.943 117.761 145.943 117.873C145.943 117.985 145.943 118.078 145.943 118.19C145.943 118.301 145.832 118.45 145.794 118.6C145.757 118.749 145.794 118.916 145.794 119.047C145.703 119.184 145.663 119.349 145.683 119.513V119.42L145.571 119.625C145.56 119.686 145.56 119.749 145.571 119.811C145.571 119.923 145.571 120.053 145.571 120.165C145.571 120.277 145.571 120.37 145.459 120.407C145.347 120.445 145.459 120.407 145.459 120.538C145.459 120.668 145.459 120.78 145.459 120.911C145.459 121.041 145.459 121.097 145.347 121.209C145.337 121.308 145.337 121.408 145.347 121.507C145.347 121.675 145.347 121.861 145.217 122.029C145.086 122.197 145.217 122.29 145.217 122.42C145.217 122.551 145.217 122.7 145.086 122.793C144.956 122.886 145.086 122.979 145.086 123.035C145.162 123.126 145.268 123.185 145.384 123.203H150.472C150.584 123.203 150.715 123.203 150.771 123.333H151.33C151.33 123.333 151.535 123.333 151.572 123.445C151.609 123.557 151.721 123.445 151.796 123.445C151.87 123.445 152.075 123.445 152.168 123.576L152.727 123.743L153.119 123.967C153.154 124.008 153.199 124.04 153.249 124.06C153.249 124.06 153.436 124.06 153.417 124.191C153.398 124.321 153.417 124.191 153.417 124.191C153.645 124.278 153.845 124.427 153.995 124.619C154.086 124.695 154.173 124.776 154.256 124.862C154.256 124.862 154.256 124.862 154.256 124.955C154.256 125.048 154.256 125.141 154.386 125.141C154.386 125.272 154.386 125.439 154.554 125.495C154.554 125.831 154.778 126.092 154.74 126.446C154.74 127.135 154.74 127.825 154.74 128.515C154.712 128.692 154.669 128.867 154.61 129.036C154.61 129.204 154.61 129.446 154.61 129.558C154.61 129.67 154.61 130.117 154.442 130.341C154.274 130.565 154.442 130.9 154.293 131.124C154.144 131.347 154.293 131.664 154.144 131.888C153.995 132.112 154.144 132.447 153.976 132.689C153.808 132.932 153.976 133.23 153.827 133.435C153.724 133.709 153.673 134 153.678 134.292C153.674 134.336 153.674 134.379 153.678 134.423C153.674 134.466 153.674 134.51 153.678 134.553C153.687 134.69 153.687 134.827 153.678 134.963C153.678 134.963 153.678 135.112 153.585 135.187C153.492 135.261 153.585 135.28 153.585 135.317V135.764C153.555 135.843 153.518 135.918 153.473 135.988C153.464 136.044 153.464 136.1 153.473 136.156C153.473 136.342 153.473 136.547 153.342 136.734C153.212 136.92 153.342 136.976 153.342 137.088C153.342 137.2 153.343 137.442 153.212 137.591C153.082 137.74 153.212 137.721 153.212 137.777C153.212 137.833 153.212 138.15 153.1 138.299C152.988 138.448 153.1 138.486 153.1 138.597C153.1 138.709 153.1 139.026 152.951 139.194C152.802 139.361 152.951 139.194 152.951 139.306L153.529 139.921Z" fill="white"/>
<path d="M144.937 70.8107C162.352 70.8107 176.471 56.6923 176.471 39.2764C176.471 21.8606 162.352 7.74219 144.937 7.74219C127.521 7.74219 113.402 21.8606 113.402 39.2764C113.402 56.6923 127.521 70.8107 144.937 70.8107Z" fill="#6DCCE2"/>
<path d="M145.442 20.2862C151.033 20.2862 156.736 20.2862 162.402 20.2862C163.39 20.2862 163.688 20.4913 163.595 21.535C163.054 26.9584 162.589 32.4005 162.123 37.8239C161.657 43.2473 161.228 48.1862 160.781 53.3487C160.669 54.5788 160.501 55.7902 160.483 57.0761C160.483 57.7098 160.147 57.8216 159.681 57.9521C155.134 59.2194 150.586 60.524 146.02 61.6795C145.466 61.7804 144.896 61.742 144.361 61.5677C140.1 60.3252 135.832 59.1511 131.558 58.0453C131.182 57.9822 130.843 57.7847 130.603 57.4897C130.363 57.1948 130.239 56.8225 130.253 56.4425C129.862 51.3172 129.47 46.192 129.004 41.0668C128.426 34.7674 127.793 28.5053 127.14 22.2245C126.954 20.3608 126.973 20.2676 129.004 20.2676L145.442 20.2862ZM145.349 48.8385C143.803 48.5971 142.277 48.242 140.783 47.7762C140.242 47.6644 140.149 47.273 140.112 46.7511C139.851 43.8437 139.832 43.8437 136.85 43.8437H135.937C135.229 43.8437 135.099 44.0674 135.155 44.7197C135.322 46.5834 135.453 48.5776 135.509 50.4972C135.509 51.3545 136.086 51.4477 136.701 51.6154C139.59 52.4168 142.46 53.2555 145.349 54.0756C145.349 55.3056 145.349 56.5171 145.349 57.803C145.349 58.4181 145.442 58.7908 146.225 58.5858C149.766 57.5793 153.307 56.6289 156.848 55.6598C157.077 55.6203 157.285 55.5016 157.435 55.3244C157.585 55.1471 157.667 54.9227 157.668 54.6906C157.967 51.1992 158.277 47.7078 158.6 44.2165C158.824 41.4954 159.01 38.7558 159.271 36.0161C159.644 32.1768 160.017 28.3375 160.427 24.4983C160.557 23.3987 160.11 23.1191 159.066 23.1377C155.618 23.1377 152.189 23.1377 148.741 23.1377C145.293 23.1377 145.405 23.1377 145.368 26.4552C145.368 27.4988 144.976 27.7411 144.007 27.7225C141.137 27.7225 138.267 27.7225 135.397 27.7225C134.912 27.7225 134.353 27.5175 133.962 28.0021C133.918 29.1721 133.968 30.3437 134.111 31.5058C134.241 32.4004 134.633 32.6241 135.509 32.6241C138.77 32.6241 142.05 32.6241 145.33 32.6241C145.33 33.6491 145.33 34.6742 145.33 35.6806C145.33 36.687 145.051 36.9293 144.1 36.9107C141.454 36.9107 138.789 36.9107 136.142 36.9107C135.62 36.9107 135.005 36.6497 134.577 37.2461C134.716 38.3466 134.791 39.4543 134.8 40.5636C134.8 41.5886 135.173 41.8309 136.142 41.8309C139.199 41.8309 142.255 41.8309 145.312 41.8309L145.349 48.8385Z" fill="white"/>
<path d="M145.345 54.0731C148.141 53.2903 150.936 52.4703 153.732 51.7248C154.515 51.5011 154.888 51.2216 154.962 50.3084C155.409 44.624 155.95 38.9583 156.453 33.2739C156.565 31.8575 156.584 30.4224 156.826 29.006C156.975 28.0741 156.714 27.8878 155.838 27.8878C152.614 27.8878 149.371 27.8878 146.147 27.8878C142.084 27.8878 138.039 27.8878 133.977 27.8878C134.368 27.4032 134.927 27.6082 135.412 27.6082C138.282 27.6082 141.152 27.6082 144.022 27.6082C144.991 27.6082 145.383 27.3846 145.383 26.3409C145.383 23.0234 145.476 23.0234 148.756 23.0234C152.036 23.0234 155.633 23.0234 159.081 23.0234C160.125 23.0234 160.572 23.2844 160.441 24.384C160.031 28.2232 159.659 32.0625 159.286 35.9018C159.025 38.6415 158.839 41.3811 158.615 44.1022C158.292 47.606 157.981 51.0973 157.683 54.5763C157.682 54.8084 157.599 55.0328 157.449 55.2101C157.299 55.3873 157.092 55.506 156.863 55.5455C153.322 56.5146 149.781 57.4091 146.24 58.4715C145.457 58.6765 145.364 58.3038 145.364 57.6887C145.364 56.5146 145.345 55.3032 145.345 54.0731Z" fill="white"/>
<path d="M145.366 41.8281C146.857 41.8281 148.33 41.8281 149.821 41.8281C150.715 41.8281 150.995 42.1264 150.92 42.965C150.771 44.3255 150.659 45.6861 150.566 47.0466C150.555 47.256 150.47 47.4546 150.327 47.6079C150.184 47.7612 149.991 47.8593 149.783 47.8852C148.33 48.3238 146.848 48.6601 145.348 48.8917C145.366 46.5061 145.366 44.1578 145.366 41.8281Z" fill="white"/>
<path d="M145.349 32.6035H150.717C151.015 32.6035 151.537 32.6035 151.593 32.7339C152.17 34.0013 151.388 35.2686 151.481 36.5919C151.481 37.4305 150.661 37.1323 150.158 37.151C145.442 37.151 140.727 37.151 136.012 37.151H134.633C135.061 36.5546 135.676 36.8155 136.198 36.8155C138.845 36.8155 141.51 36.8155 144.156 36.8155C145.107 36.8155 145.442 36.4987 145.386 35.5854C145.331 34.6722 145.349 33.6845 145.349 32.6035Z" fill="white"/>
<path d="M39.8741 161.965C57.2899 161.965 71.4083 147.847 71.4083 130.431C71.4083 113.015 57.2899 98.8965 39.8741 98.8965C22.4582 98.8965 8.33984 113.015 8.33984 130.431C8.33984 147.847 22.4582 161.965 39.8741 161.965Z" fill="#6DCCE2"/>
<path d="M27.8125 138.052V121.465H38.9017V122.322H28.8376V128.957H38.3239V129.833H28.8562V137.101H39.0508V138.052H27.8125Z" fill="white"/>
<path d="M39.9313 121.446H41.0123C41.0123 121.446 41.18 121.558 41.2359 121.632L46.1375 128.416L46.3612 128.733C50.2191 123.291 54.282 118.091 58.4754 112.947L47.0135 129.478L53.2383 138.052H52.0828C52.0828 138.052 51.9337 137.94 51.8592 137.865L46.9389 131.063L46.4171 130.336C46.3537 130.404 46.2976 130.479 46.2494 130.559L40.9191 137.884C40.875 137.946 40.8159 137.995 40.7475 138.028C40.679 138.06 40.6034 138.075 40.5277 138.07C40.2295 138.07 39.9313 138.07 39.5586 138.07L45.7834 129.572L39.9313 121.446Z" fill="white"/>
<path d="M14.9196 122.807V138.052H13.8945V121.465C14.2859 121.465 14.6959 121.465 15.0686 121.465C15.4414 121.465 15.2364 121.577 15.2923 121.67C16.6342 123.645 17.9761 125.64 19.2993 127.634L31.9913 146.513C32.0533 146.597 32.0977 146.692 32.1218 146.793L32.0099 146.681C29.848 143.811 27.6488 140.959 25.5428 138.052C23.8841 135.778 22.3372 133.43 20.7344 131.119L15.1432 122.993C15.0997 122.92 15.0498 122.852 14.9941 122.788L14.9196 122.807Z" fill="white"/>
<path d="M59.4593 122.322H53.6445V121.465H66.2806V122.322H60.4658V138.052H59.4593V122.322Z" fill="white"/>
<path d="M178.04 25.4617C181.013 32.6857 181.608 40.6843 179.737 48.276C177.865 55.8677 173.627 62.6499 167.647 67.6206C161.668 72.5914 154.265 75.487 146.531 75.8797C138.798 76.2725 131.145 74.1416 124.702 69.8018C118.26 65.462 113.369 59.1435 110.754 51.7797C108.138 44.4158 107.936 36.3972 110.178 28.9085C112.419 21.4197 116.985 14.8579 123.2 10.1925C129.416 5.52705 136.952 3.00536 144.695 3" stroke="#6DCCE2" stroke-width="5" stroke-miterlimit="10" stroke-linecap="round"/>
</svg>
