<svg width="30" height="36" viewBox="0 0 30 36" fill="none" xmlns="http://www.w3.org/2000/svg">
<path d="M0 20.8659C0.0493641 17.9784 0.94824 15.1699 2.58374 12.7929C4.21923 10.416 6.51845 8.57666 9.19274 7.50579C11.867 6.43492 14.7972 6.18029 17.6153 6.77386C20.4334 7.36743 23.0138 8.7827 25.0326 10.8421C27.0514 12.9014 28.4185 15.5131 28.9624 18.349C29.5063 21.185 29.2026 24.1189 28.0896 26.7824C26.9765 29.4458 25.1037 31.7202 22.7062 33.3198C20.3087 34.9194 17.4934 35.773 14.6138 35.7734C10.7203 35.6915 7.01284 34.0868 4.28259 31.3017C1.55235 28.5166 0.0154836 24.7716 0 20.8659V20.8659ZM27.8497 20.8659C27.8127 18.2604 27.0081 15.724 25.5374 13.5759C24.0666 11.4277 21.9953 9.76372 19.5839 8.79323C17.1726 7.82274 14.529 7.58913 11.9856 8.12168C9.44215 8.65423 7.11252 9.92922 5.2898 11.7863C3.46708 13.6433 2.23262 15.9994 1.74173 18.5583C1.25084 21.1172 1.52545 23.7645 2.53098 26.1672C3.53651 28.57 5.22809 30.6209 7.3929 32.0619C9.55771 33.5029 12.099 34.2698 14.6973 34.2659C18.2194 34.2274 21.5848 32.8 24.0656 30.2923C26.5465 27.7847 27.9433 24.3984 27.9541 20.8659H27.8497Z" fill="#FFAA00"/>
<path d="M21.42 31.7111C24.3832 31.7111 26.7854 29.302 26.7854 26.3302C26.7854 23.3583 24.3832 20.9492 21.42 20.9492C18.4568 20.9492 16.0547 23.3583 16.0547 26.3302C16.0547 29.302 18.4568 31.7111 21.42 31.7111Z" fill="#FFAA00"/>
<path d="M1.32422 7.01367L4.32422 11.0137" stroke="#FFAA00" stroke-width="1.5" stroke-miterlimit="10" stroke-linecap="round"/>
<path d="M27.8398 7.01367L24.8398 11.0137" stroke="#FFAA00" stroke-width="1.5" stroke-miterlimit="10" stroke-linecap="round"/>
<path d="M19.6016 1.17578L17.5601 6.90576" stroke="#FFAA00" stroke-width="1.5" stroke-miterlimit="10" stroke-linecap="round"/>
<path d="M8.32422 1.18945L10.3656 6.91943" stroke="#FFAA00" stroke-width="1.5" stroke-miterlimit="10" stroke-linecap="round"/>
</svg>
