<svg width="120" height="81" viewBox="0 0 120 81" fill="none" xmlns="http://www.w3.org/2000/svg">
<path d="M0.207031 10.4199H1.7101L19.3928 36.8221V10.4199H20.8959V39.209H19.3928L1.7101 12.8068V39.2299H0.207031V10.4199Z" fill="white"/>
<path d="M24.6758 24.8659C24.7251 21.9784 25.624 19.1699 27.2595 16.7929C28.895 14.416 31.1942 12.5767 33.8685 11.5058C36.5428 10.4349 39.473 10.1803 42.2911 10.7739C45.1091 11.3674 47.6896 12.7827 49.7084 14.8421C51.7272 16.9014 53.0943 19.5131 53.6382 22.349C54.182 25.185 53.8784 28.1189 52.7653 30.7824C51.6523 33.4458 49.7794 35.7202 47.3819 37.3198C44.9844 38.9194 42.1691 39.773 39.2896 39.7734C35.396 39.6915 31.6886 38.0868 28.9584 35.3017C26.2281 32.5166 24.6913 28.7716 24.6758 24.8659V24.8659ZM52.5255 24.8659C52.4885 22.2604 51.6839 19.724 50.2131 17.5759C48.7424 15.4277 46.6711 13.7637 44.2597 12.7932C41.8484 11.8227 39.2048 11.5891 36.6614 12.1217C34.1179 12.6542 31.7883 13.9292 29.9656 15.7863C28.1429 17.6433 26.9084 19.9994 26.4175 22.5583C25.9266 25.1172 26.2012 27.7645 27.2068 30.1672C28.2123 32.57 29.9039 34.6209 32.0687 36.0619C34.2335 37.5029 36.7748 38.2698 39.3731 38.2659C42.8952 38.2274 46.2606 36.8 48.7414 34.2923C51.2223 31.7847 52.6191 28.3984 52.6299 24.8659H52.5255Z" fill="white"/>
<path d="M61 24.405C61.0494 21.5174 61.9482 18.7089 63.5837 16.332C65.2192 13.9551 67.5184 12.1157 70.1927 11.0448C72.867 9.97398 75.7972 9.71935 78.6153 10.3129C81.4334 10.9065 84.0138 12.3218 86.0326 14.3811C88.0514 16.4405 89.4185 19.0521 89.9624 21.8881C90.5063 24.7241 90.2026 27.658 89.0896 30.3214C87.9765 32.9849 86.1037 35.2592 83.7062 36.8588C81.3087 38.4585 78.4934 39.312 75.6138 39.3125C71.7203 39.2305 68.0128 37.6259 65.2826 34.8407C62.5523 32.0556 61.0155 28.3106 61 24.405V24.405ZM88.8497 24.405C88.8127 21.7994 88.0081 19.2631 86.5374 17.1149C85.0666 14.9668 82.9953 13.3028 80.5839 12.3323C78.1726 11.3618 75.529 11.1282 72.9856 11.6607C70.4422 12.1933 68.1125 13.4683 66.2898 15.3253C64.4671 17.1824 63.2326 19.5385 62.7417 22.0974C62.2508 24.6562 62.5255 27.3035 63.531 29.7063C64.5365 32.1091 66.2281 34.16 68.3929 35.601C70.5577 37.042 73.099 37.8088 75.6973 37.805C79.2194 37.7665 82.5848 36.339 85.0656 33.8314C87.5465 31.3237 88.9433 27.9375 88.9541 24.405H88.8497Z" fill="white"/>
<path d="M24 62.405C24.0494 59.5174 24.9482 56.7089 26.5837 54.332C28.2192 51.9551 30.5184 50.1157 33.1927 49.0448C35.867 47.974 38.7972 47.7193 41.6153 48.3129C44.4334 48.9065 47.0138 50.3218 49.0326 52.3811C51.0514 54.4405 52.4185 57.0521 52.9624 59.8881C53.5063 62.7241 53.2026 65.658 52.0896 68.3214C50.9765 70.9849 49.1037 73.2592 46.7062 74.8588C44.3087 76.4585 41.4934 77.312 38.6138 77.3125C34.7203 77.2305 31.0128 75.6259 28.2826 72.8407C25.5523 70.0556 24.0155 66.3106 24 62.405V62.405ZM51.8497 62.405C51.8127 59.7994 51.0081 57.2631 49.5374 55.1149C48.0666 52.9668 45.9953 51.3028 43.5839 50.3323C41.1726 49.3618 38.529 49.1282 35.9856 49.6607C33.4422 50.1933 31.1125 51.4683 29.2898 53.3253C27.4671 55.1824 26.2326 57.5385 25.7417 60.0974C25.2508 62.6562 25.5255 65.3035 26.531 67.7063C27.5365 70.1091 29.2281 72.16 31.3929 73.601C33.5577 75.042 36.099 75.8088 38.6973 75.805C42.2194 75.7665 45.5848 74.339 48.0656 71.8314C50.5465 69.3237 51.9433 65.9375 51.9541 62.405H51.8497Z" fill="white"/>
<path d="M110.524 28.0493L118.373 39.2718H116.536L108.728 28.0912H98.8742V39.2718H97.3711V10.4199H109.438C115.242 10.4199 119.375 14.0631 119.375 19.2137C119.364 21.5609 118.427 23.8081 116.768 25.464C115.109 27.1198 112.864 28.0494 110.524 28.0493V28.0493ZM98.8742 26.5837H109.146C114.24 26.5837 117.872 23.5687 117.872 19.2974C117.872 15.0262 114.24 12.0112 109.146 12.0112H98.8742V26.5837Z" fill="white"/>
<path d="M46.0958 35.7111C49.059 35.7111 51.4612 33.302 51.4612 30.3302C51.4612 27.3583 49.059 24.9492 46.0958 24.9492C43.1326 24.9492 40.7305 27.3583 40.7305 30.3302C40.7305 33.302 43.1326 35.7111 46.0958 35.7111Z" fill="white"/>
<path d="M82.42 35.2502C85.3832 35.2502 87.7854 32.841 87.7854 29.8692C87.7854 26.8974 85.3832 24.4883 82.42 24.4883C79.4568 24.4883 77.0547 26.8974 77.0547 29.8692C77.0547 32.841 79.4568 35.2502 82.42 35.2502Z" fill="white"/>
<path d="M45.42 73.2502C48.3832 73.2502 50.7854 70.841 50.7854 67.8692C50.7854 64.8974 48.3832 62.4883 45.42 62.4883C42.4568 62.4883 40.0547 64.8974 40.0547 67.8692C40.0547 70.841 42.4568 73.2502 45.42 73.2502Z" fill="white"/>
<mask id="path-9-inside-1" fill="white">
<path d="M0 49.6758H11.4614C16.9728 49.6758 20.8977 53.1305 20.8977 58.0508C20.8977 62.9711 16.9728 66.4258 11.4614 66.4258H1.44051V77.0411H0V49.6758ZM11.1899 64.9392C16.0334 64.9392 19.5407 62.0708 19.5407 58.0298C19.5407 53.9889 16.096 51.0995 11.1899 51.0995H1.44051V64.8555L11.1899 64.9392Z"/>
</mask>
<path d="M0 49.6758H11.4614C16.9728 49.6758 20.8977 53.1305 20.8977 58.0508C20.8977 62.9711 16.9728 66.4258 11.4614 66.4258H1.44051V77.0411H0V49.6758ZM11.1899 64.9392C16.0334 64.9392 19.5407 62.0708 19.5407 58.0298C19.5407 53.9889 16.096 51.0995 11.1899 51.0995H1.44051V64.8555L11.1899 64.9392Z" fill="white"/>
<path d="M0 49.6758V44.6758H-5V49.6758H0ZM1.44051 66.4258V61.4258H-3.55949V66.4258H1.44051ZM1.44051 77.0411V82.0411H6.44051V77.0411H1.44051ZM0 77.0411H-5V82.0411H0V77.0411ZM11.1899 64.9392L11.147 69.9391L11.1685 69.9392H11.1899V64.9392ZM1.44051 51.0995V46.0995H-3.55949V51.0995H1.44051ZM1.44051 64.8555H-3.55949V69.8127L1.39755 69.8553L1.44051 64.8555ZM0 54.6758H11.4614V44.6758H0V54.6758ZM11.4614 54.6758C14.8009 54.6758 15.8977 56.4466 15.8977 58.0508H25.8977C25.8977 49.8143 19.1448 44.6758 11.4614 44.6758V54.6758ZM15.8977 58.0508C15.8977 59.6549 14.8009 61.4258 11.4614 61.4258V71.4258C19.1448 71.4258 25.8977 66.2873 25.8977 58.0508H15.8977ZM11.4614 61.4258H1.44051V71.4258H11.4614V61.4258ZM-3.55949 66.4258V77.0411H6.44051V66.4258H-3.55949ZM1.44051 72.0411H0V82.0411H1.44051V72.0411ZM5 77.0411V49.6758H-5V77.0411H5ZM11.1899 69.9392C17.8492 69.9392 24.5407 65.6912 24.5407 58.0298H14.5407C14.5407 58.4883 14.3854 58.825 14.0006 59.1422C13.5565 59.5084 12.6502 59.9392 11.1899 59.9392V69.9392ZM24.5407 58.0298C24.5407 50.4084 17.9601 46.0995 11.1899 46.0995V56.0995C12.6847 56.0995 13.5794 56.5368 14.0061 56.892C14.3744 57.1987 14.5407 57.5391 14.5407 58.0298H24.5407ZM11.1899 46.0995H1.44051V56.0995H11.1899V46.0995ZM-3.55949 51.0995V64.8555H6.44051V51.0995H-3.55949ZM1.39755 69.8553L11.147 69.9391L11.2329 59.9394L1.48346 59.8557L1.39755 69.8553Z" fill="white" mask="url(#path-9-inside-1)"/>
<mask id="path-11-inside-2" fill="white">
<path d="M57.3711 49.6758H68.8325C74.344 49.6758 78.2688 53.1305 78.2688 58.0508C78.2688 62.9711 74.344 66.4258 68.8325 66.4258H58.8951V77.0411H57.4755L57.3711 49.6758ZM68.5402 64.9392C73.3836 64.9392 76.8909 62.0708 76.8909 58.0298C76.8909 53.9889 73.4463 51.0995 68.5402 51.0995H58.8951V64.8555L68.5402 64.9392Z"/>
</mask>
<path d="M57.3711 49.6758H68.8325C74.344 49.6758 78.2688 53.1305 78.2688 58.0508C78.2688 62.9711 74.344 66.4258 68.8325 66.4258H58.8951V77.0411H57.4755L57.3711 49.6758ZM68.5402 64.9392C73.3836 64.9392 76.8909 62.0708 76.8909 58.0298C76.8909 53.9889 73.4463 51.0995 68.5402 51.0995H58.8951V64.8555L68.5402 64.9392Z" fill="white"/>
<path d="M57.3711 49.6758V44.6758H52.352L52.3711 49.6949L57.3711 49.6758ZM58.8951 66.4258V61.4258H53.8951V66.4258H58.8951ZM58.8951 77.0411V82.0411H63.8951V77.0411H58.8951ZM57.4755 77.0411L52.4756 77.0602L52.4946 82.0411H57.4755V77.0411ZM68.5402 64.9392L68.4968 69.939L68.5185 69.9392H68.5402V64.9392ZM58.8951 51.0995V46.0995H53.8951V51.0995H58.8951ZM58.8951 64.8555H53.8951V69.8122L58.8517 69.8553L58.8951 64.8555ZM57.3711 54.6758H68.8325V44.6758H57.3711V54.6758ZM68.8325 54.6758C72.1721 54.6758 73.2688 56.4466 73.2688 58.0508H83.2688C83.2688 49.8143 76.5159 44.6758 68.8325 44.6758V54.6758ZM73.2688 58.0508C73.2688 59.6549 72.1721 61.4258 68.8325 61.4258V71.4258C76.5159 71.4258 83.2688 66.2873 83.2688 58.0508H73.2688ZM68.8325 61.4258H58.8951V71.4258H68.8325V61.4258ZM53.8951 66.4258V77.0411H63.8951V66.4258H53.8951ZM58.8951 72.0411H57.4755V82.0411H58.8951V72.0411ZM62.4755 77.022L62.3711 49.6567L52.3711 49.6949L52.4756 77.0602L62.4755 77.022ZM68.5402 69.9392C75.1995 69.9392 81.8909 65.6912 81.8909 58.0298H71.8909C71.8909 58.4883 71.7356 58.825 71.3509 59.1422C70.9068 59.5084 70.0004 59.9392 68.5402 59.9392V69.9392ZM81.8909 58.0298C81.8909 50.4084 75.3104 46.0995 68.5402 46.0995V56.0995C70.035 56.0995 70.9297 56.5368 71.3563 56.892C71.7247 57.1987 71.8909 57.5391 71.8909 58.0298H81.8909ZM68.5402 46.0995H58.8951V56.0995H68.5402V46.0995ZM53.8951 51.0995V64.8555H63.8951V51.0995H53.8951ZM58.8517 69.8553L68.4968 69.939L68.5836 59.9394L58.9385 59.8557L58.8517 69.8553Z" fill="white" mask="url(#path-11-inside-2)"/>
<mask id="path-13-inside-3" fill="white">
<path d="M80.625 49.6758H92.0864C97.5978 49.6758 101.523 53.1305 101.523 58.0508C101.523 62.9711 97.5978 66.4258 92.0864 66.4258H82.0446V77.0411H80.625V49.6758ZM91.7941 64.9392C96.6375 64.9392 100.145 62.0708 100.145 58.0298C100.145 53.9889 96.7002 51.0995 91.7941 51.0995H82.0446V64.8555L91.7941 64.9392Z"/>
</mask>
<path d="M80.625 49.6758H92.0864C97.5978 49.6758 101.523 53.1305 101.523 58.0508C101.523 62.9711 97.5978 66.4258 92.0864 66.4258H82.0446V77.0411H80.625V49.6758ZM91.7941 64.9392C96.6375 64.9392 100.145 62.0708 100.145 58.0298C100.145 53.9889 96.7002 51.0995 91.7941 51.0995H82.0446V64.8555L91.7941 64.9392Z" fill="white"/>
<path d="M80.625 49.6758V44.6758H75.625V49.6758H80.625ZM82.0446 66.4258V61.4258H77.0446V66.4258H82.0446ZM82.0446 77.0411V82.0411H87.0446V77.0411H82.0446ZM80.625 77.0411H75.625V82.0411H80.625V77.0411ZM91.7941 64.9392L91.7512 69.9391L91.7726 69.9392H91.7941V64.9392ZM82.0446 51.0995V46.0995H77.0446V51.0995H82.0446ZM82.0446 64.8555H77.0446V69.8127L82.0017 69.8553L82.0446 64.8555ZM80.625 54.6758H92.0864V44.6758H80.625V54.6758ZM92.0864 54.6758C95.4259 54.6758 96.5227 56.4467 96.5227 58.0508H106.523C106.523 49.8143 99.7697 44.6758 92.0864 44.6758V54.6758ZM96.5227 58.0508C96.5227 59.6549 95.4259 61.4258 92.0864 61.4258V71.4258C99.7697 71.4258 106.523 66.2873 106.523 58.0508H96.5227ZM92.0864 61.4258H82.0446V71.4258H92.0864V61.4258ZM77.0446 66.4258V77.0411H87.0446V66.4258H77.0446ZM82.0446 72.0411H80.625V82.0411H82.0446V72.0411ZM85.625 77.0411V49.6758H75.625V77.0411H85.625ZM91.7941 69.9392C98.4534 69.9392 105.145 65.6912 105.145 58.0298H95.1448C95.1448 58.4883 94.9895 58.825 94.6048 59.1422C94.1607 59.5084 93.2543 59.9392 91.7941 59.9392V69.9392ZM105.145 58.0298C105.145 50.4084 98.5643 46.0995 91.7941 46.0995V56.0995C93.2889 56.0995 94.1836 56.5368 94.6102 56.892C94.9786 57.1987 95.1448 57.5391 95.1448 58.0298H105.145ZM91.7941 46.0995H82.0446V56.0995H91.7941V46.0995ZM77.0446 51.0995V64.8555H87.0446V51.0995H77.0446ZM82.0017 69.8553L91.7512 69.9391L91.8371 59.9394L82.0876 59.8557L82.0017 69.8553Z" fill="white" mask="url(#path-13-inside-3)"/>
<mask id="path-15-inside-4" fill="white">
<path d="M105.304 51.0995V62.3639H118.79V63.7876H105.304V75.5545H119.918V76.9992H103.801V49.6758H119.918V51.0995H105.304Z"/>
</mask>
<path d="M105.304 51.0995V62.3639H118.79V63.7876H105.304V75.5545H119.918V76.9992H103.801V49.6758H119.918V51.0995H105.304Z" fill="white"/>
<path d="M105.304 51.0995V46.0995H100.304V51.0995H105.304ZM105.304 62.3639H100.304V67.3639H105.304V62.3639ZM118.79 62.3639H123.79V57.3639H118.79V62.3639ZM118.79 63.7876V68.7876H123.79V63.7876H118.79ZM105.304 63.7876V58.7876H100.304V63.7876H105.304ZM105.304 75.5545H100.304V80.5545H105.304V75.5545ZM119.918 75.5545H124.918V70.5545H119.918V75.5545ZM119.918 76.9992V81.9992H124.918V76.9992H119.918ZM103.801 76.9992H98.8008V81.9992H103.801V76.9992ZM103.801 49.6758V44.6758H98.8008V49.6758H103.801ZM119.918 49.6758H124.918V44.6758H119.918V49.6758ZM119.918 51.0995V56.0995H124.918V51.0995H119.918ZM100.304 51.0995V62.3639H110.304V51.0995H100.304ZM105.304 67.3639H118.79V57.3639H105.304V67.3639ZM113.79 62.3639V63.7876H123.79V62.3639H113.79ZM118.79 58.7876H105.304V68.7876H118.79V58.7876ZM100.304 63.7876V75.5545H110.304V63.7876H100.304ZM105.304 80.5545H119.918V70.5545H105.304V80.5545ZM114.918 75.5545V76.9992H124.918V75.5545H114.918ZM119.918 71.9992H103.801V81.9992H119.918V71.9992ZM108.801 76.9992V49.6758H98.8008V76.9992H108.801ZM103.801 54.6758H119.918V44.6758H103.801V54.6758ZM114.918 49.6758V51.0995H124.918V49.6758H114.918ZM119.918 46.0995H105.304V56.0995H119.918V46.0995Z" fill="white" mask="url(#path-15-inside-4)"/>
<path d="M26 48.0137L29 52.0137" stroke="white" stroke-width="1.5" stroke-miterlimit="10" stroke-linecap="round"/>
<path d="M51.5156 48.0137L48.5156 52.0137" stroke="white" stroke-width="1.5" stroke-miterlimit="10" stroke-linecap="round"/>
<path d="M44.2773 43.1758L42.2359 48.9058" stroke="white" stroke-width="1.5" stroke-miterlimit="10" stroke-linecap="round"/>
<path d="M33 43.1895L35.0414 48.9194" stroke="white" stroke-width="1.5" stroke-miterlimit="10" stroke-linecap="round"/>
<path d="M26 11.0137L29 15.0137" stroke="white" stroke-width="1.5" stroke-miterlimit="10" stroke-linecap="round"/>
<path d="M62 11.0137L65 15.0137" stroke="white" stroke-width="1.5" stroke-miterlimit="10" stroke-linecap="round"/>
<path d="M52.5156 11.0137L49.5156 15.0137" stroke="white" stroke-width="1.5" stroke-miterlimit="10" stroke-linecap="round"/>
<path d="M88.5156 10.0273L85.5156 14.0273" stroke="white" stroke-width="1.5" stroke-miterlimit="10" stroke-linecap="round"/>
<path d="M44.2773 5.17578L42.2359 10.9058" stroke="white" stroke-width="1.5" stroke-miterlimit="10" stroke-linecap="round"/>
<path d="M80.2773 5.18945L78.2359 10.9194" stroke="white" stroke-width="1.5" stroke-miterlimit="10" stroke-linecap="round"/>
<path d="M33 5.18945L35.0414 10.9194" stroke="white" stroke-width="1.5" stroke-miterlimit="10" stroke-linecap="round"/>
<path d="M69 5.20312L71.0414 10.9331" stroke="white" stroke-width="1.5" stroke-miterlimit="10" stroke-linecap="round"/>
</svg>
